<?xml version="1.0" encoding="utf-8"?>
<!-- Generator: Adobe Illustrator 26.3.1, SVG Export Plug-In . SVG Version: 6.00 Build 0)  -->
<svg version="1.1" id="Capa_1" xmlns="http://www.w3.org/2000/svg" xmlns:xlink="http://www.w3.org/1999/xlink" x="0px" y="0px"
	 viewBox="0 0 665 544" style="enable-background:new 0 0 665 544;" xml:space="preserve">
<style type="text/css">
	.st0{fill:#4682B4;stroke:#800000;stroke-width:2;stroke-miterlimit:10;}
	.st1{fill:#FFB6C1;stroke:#800000;stroke-width:2;stroke-miterlimit:10;}
	.st2{fill:#FDDDCA;stroke:#000000;stroke-width:1.5;stroke-linecap:round;stroke-linejoin:round;stroke-miterlimit:10;}
	.st3{fill:#FDDDCA;stroke:#000000;stroke-width:1.5;stroke-miterlimit:10;}
	.st4{fill:#FDDDCA;}
	.st5{fill:#ED1E79;stroke:#000000;stroke-width:1.5;stroke-miterlimit:10;}
</style>
<path class="st0" d="M371.5,169.8L371.5,169.8l-12.4,35.7c0,0,49.9-72.6,65.9-86.7l2.5-1.8c3-2.2,7.2-2.4,10.2-0.1
	c2,1.5,3.4,3.6,4.5,5.5c1.3,2.4,1.3,5.3,0,7.7c0,0-11.3,19.3-25.9,46.4c-3.6,6.7-6.8,13.6-9.4,20.8l-4.2,11.2
	c-0.7,1.3,24-35.5,41.6-50.7c1.3-1.1,2.5-2.2,3.6-3.4c3.4-3.3,10.5-9.3,13.5-5.5l5.7,5.3c2.9,2.7-0.7,9.1-2.6,12.6
	c-13.7,25.8-21.6,57.9-13.9,71.7c0,0-12.1-1.6-14.8-3.5c-5.8-3.9-7.9-7.8-8.1-14.8c-0.7-21.7,7.2-39,18.1-54.7
	c0.4-0.6-2.3,1.8-2.3,1.8C426,184,405,216.9,397,229.8c-2.1,3.4-7,3.7-9.5,0.6c-8.7-10.9-2.5-30.7-2.5-30.7
	c4.2-16.9,18.3-38.1,27.1-54.8c1.2-2.2-58.2,83.5-58.2,83.5c-6.1,7.8-21.1-6.8-16.3-22.1l11.4-24.7c14.7-36.5-0.1-52.6-0.1-52.6h0
	c14.2,1.9,21.3,12.6,21.3,12.6C375.7,150.1,374.6,159.6,371.5,169.8z"/>
<path class="st0" d="M534.3,162.5c-2.3-18.4-14.5-17-16.8-18.7c-7.1-5-9-8.3-17.1-5c-28,15.2-10.3,10.7-11.5,11.9
	c-31,30.3-35.2,59.5-33,68.5c5.6,22.9,30,34.3,64.6-15.6C537.4,179.3,534.3,162.5,534.3,162.5z M524.8,166.6
	c-1.9,29.1-38.4,55.7-38.4,55.7c-1.9,1.4-3.9,2.7-5.9,3.8c-14.2,7.3-11.4-3.6-11.4-3.6c3.4-25.7,33.7-59.3,45.5-68.7
	c3.1-2.4,5.6-0.5,7.4,2C524.2,158.9,525.1,162.8,524.8,166.6z"/>
<path class="st0" d="M539,139.3L539,139.3c5.7,17,4.4,35.6-3.7,51.5l-9.2,18.2c-1.6,3.2-3.1,6.4-4.2,9.8c-1.7,4.8-3.2,14,1.9,18.2
	c3.7,3.1,11,3.8,17.6,2.6c0,0,0-13.5,15.1-41.7l14-22.1c6.7-10.6,17.7-22.6,26-30.2c2-1.8-10.6,30.2-11.7,38.6
	c-0.5,3.4,0.5,6.9,2.7,9.6c5.7,7,12.5,9,12.1,6c-5.4-43.5,27.4-63.8,21.1-69.5l-4.5-5c-2.5-2.8-6.9-3-9.7-0.4l0,0
	c-29.2,23.8-54.4,68.9-54.4,68.9s9.8-30.5,10.2-34.4C564.5,137.5,539,139.3,539,139.3z"/>
<path class="st0" d="M336.7,341.9L336.7,341.9c5.7,17,4.4,35.6-3.7,51.5l-9.2,18.2c-1.6,3.2-3.1,6.4-4.2,9.8
	c-1.7,4.8-3.2,14,1.9,18.2c3.7,3.1,11,3.8,17.6,2.6c0,0,0-13.5,15.1-41.7l14-22.1c6.7-10.6,17.7-22.6,26-30.2
	c2-1.8-10.6,30.2-11.7,38.6c-0.5,3.4,0.5,6.9,2.7,9.6c5.7,7,12.5,9,12.1,6c-5.4-43.5,27.4-63.8,21.1-69.5l-4.5-5
	c-2.5-2.8-6.9-3-9.7-0.4h0c-29.2,23.8-54.4,68.9-54.4,68.9s9.8-30.5,10.2-34.4C362.2,340,336.7,341.9,336.7,341.9z"/>
<path class="st0" d="M451.3,301l18.9-32.4c8.5-15,18.2-6.9,23-1.3c1.9,2.2,2.2,5.4,0.8,8c-5.5,10.6-10.8,18.8-15.5,27.3l0,0
	c0,0,38.1-1.1,74.2-9.3c0.5-0.1-17.1,22.6-63.3,27.2l-22.2,2c0,0-61.7,110.4-40.1,132.6v0c-0.6,1.7-2.9,2.1-4,0.6l0,0
	c-28.4-24.7,19.9-134.1,19.9-134.1l-23.4-1.3c-6.5-1.1-8.9-5.6-9.9-9.1c-0.8-3.2-0.1-6.8,2.3-9.1c1.8-1.8,4.7-2.9,9.3-2.2
	C427.9,301.2,451.3,301,451.3,301z"/>
<path class="st0" d="M536.2,382.4c-0.3-0.1-0.6,0-0.8,0.2c-56.8,59.4-80.7,55.8-75.5,32.5c0,0,31.4-0.3,51.9-33.4
	c5.1-8.1,8.2-17.4,7.6-27c-0.9-13.8-7.7-18.3-14.1-19.4c-5.9-1-11.4,1.6-16.4,4.8C461,358.4,443.9,395,441.3,411
	c-2.2,12.8,4.7,25.3,16.5,30.6l4.2,1.1c37.3,3.4,75.5-56.4,75.5-56.4C538.5,384.9,537.9,382.7,536.2,382.4z M461.1,405.1
	c4.6-16.8,20.6-41.5,44.4-57.8c1.8-1.2,10.1,34.1-38.4,57.7C465.4,405.9,460.6,407,461.1,405.1z"/>
<path class="st1" d="M586,205.8c0,0,4.2,10.9-0.9,29.1c-8,28.9-34,63.3-27.5,69.6l4.2,4.1l7.4,7.3c10.9,11.9,58.7-53.3,62.6-58.9
	c2.2-3.2-2,14-4.5,24.1c-1.1,4.4-2.5,8.6-4.1,12.8c-3.2,8.3-8.9,22.3-13.5,24.4c-23.7,10.8-60.2,39.1-60.2,39.1s29.7-18,52.1-27.9
	c15-6.6-34.5,51.9-56.7,32.8l-1.3-1.2l-0.2,4.7c-0.2,4.1,1.1,8.3,3.9,11.4c7,7.8,19,5.4,29.3,1.1c11.5-4.8,21.5-12.3,29.9-21.5
	c35.2-38.5,42.1-83.9,43.5-100.3c0.4-4.2-1-8.4-3.9-11.5c-3.3-3.5-7.2-6.4-11.5-8.6l0,0l0,0c-0.7,4.2-2.3,8.2-4.8,11.7
	c-18,24.6-66.2,77.6-58.5,61.8c6.6-13.5,63.6-97,18.8-103.1L586,205.8z"/>
<path class="st1" d="M354,54.2c4.1-18.1-18.9-27.7-25.4-30c-1.8-0.7-3.6-1.5-5.2-2.6c-1.3-0.9-2.4-1.9-3.7-2.8c-3-2.3-9.8-8-11.5,0
	l-0.5,7.3c-0.1,1.2-0.4,2.5-0.8,3.6l-13,32.3C193.4,269,76,335.5,51.5,292.6c0,0-2.6-6.6-4-7.1c-2-0.7-3.3,0.4-4.2,1.7
	c-0.9,1.4-1.3,3-1.3,4.6c0.4,14.8,21.4,24.1,21.4,24.1c58,18.5,152.6-87,199.8-139c3.6-3.9,35.4-14.4,35.4-14.4l0.1-1l0,0l-1.9,15.6
	c-2.2,28.8-8.2,42.7,10.9,55.2c7.4,4.8,15.8,7.8,24.6,8.9c6,0.8,11.5,0.6,9.1-3.4c-2.5-4.2-5.5-7.8-7.1-11.6
	c-2.9-7-3.9-14.6-3.1-22.1C334.7,168.6,354,54.2,354,54.2z M275.4,155.2l30.3-51.7l-5.3,44.6C300.4,148.1,274.9,156.3,275.4,155.2z"
	/>
<path class="st1" d="M332.3,270.2c4.1-18.1-18.9-27.7-25.4-30c-1.8-0.7-3.6-1.5-5.2-2.6c-1.3-0.9-2.4-1.9-3.7-2.8
	c-3-2.3-9.8-8-11.5,0L286,242c-0.1,1.2-0.4,2.5-0.8,3.6l-13,32.3C171.7,484.9,54.3,551.5,29.8,508.6c0,0-2.6-6.6-4-7.1
	c-2-0.7-3.3,0.4-4.2,1.7c-0.9,1.4-1.3,3-1.3,4.6c0.4,14.8,21.4,24.1,21.4,24.1c58,18.5,152.6-87,199.8-139
	c3.6-3.9,35.4-14.4,35.4-14.4l0.1-1l0,0l-1.9,15.6c-2.2,28.8-8.2,42.7,10.9,55.2c7.4,4.8,15.8,7.8,24.6,8.9c6,0.8,11.5,0.6,9.1-3.4
	c-2.5-4.2-5.5-7.8-7.1-11.6c-2.9-7-3.9-14.6-3.1-22.1C313,384.6,332.3,270.2,332.3,270.2z M253.7,371.1l30.3-51.7l-5.3,44.6
	C278.7,364,253.1,372.2,253.7,371.1z"/>
<g>
	<g>
		<path class="st2" d="M123.3,265.8L123.3,265.8c-5.3,10.7,0,20,0,20l0.1,0.2c9.6,10.1,18.9,1.4,23.4-4.2c2-2.6,3.6-5.4,4.6-8.5
			c0.4-1.1,0.7-2.3,0.9-3.4c0.2-1,0.4-2,0.5-3c0-0.3,0.1,0.2,0.2,0.8c0.2,1.5,0.8,3,1.8,4.2c2,2.1,3.9,2,5.4,1.4
			c1.6-0.7,2.6-2.4,2.4-4.1c-0.9-9.9-13.4-11.8-13.4-11.8c-1-0.1-1.9,0.4-2.3,1.3c-1.6,3.3-5.2,10.8-4.3,8.8c0.5-1.3,1-2.7,1.3-4.1
			c1.4-5.3,0.3-11-3.1-15.3c-11.7-15.2-26.4-0.3-26.4-0.3c-2.1,1.9-4.5,6.5-6.1,8.9c-3.5,5.5-9.1,12.2-9.1,12.2l4.4,5.3l2.8,5.7
			l1.8,8.1l0.2,4.5l6.9-2"/>
		<path class="st2" d="M90.2,263.4c14.3,4.6,17,18.9,17,18.9c5.9,22.7-16.1,27.9-16.1,27.9c-1.2,0.4-2.4,0.6-3.6,0.6
			c-9.1,0.2-13-0.2-13.6-0.3c-21.2-4-24.4-17.1-23.1-28c1.8-14.8,15.9-25,30.5-21.9C86.5,261.6,90.2,263.4,90.2,263.4z"/>
		<path class="st2" d="M110.5,284.2h1.7c2.8,0,6.6,2,8.8,4.6c0,0-0.8-2.6,2.3-2.9c0.5,0-0.6,0.4-1.7,0.7c-0.9,0.3-1.2,1.4-0.6,2.2
			c0,0,9.2,14-12.7,14c0,0,1,4.5-5.9,3.5l-1.6-0.4l3.5-4.4c0.7-0.9,1.3-1.9,1.7-3l2.3-6.2l1-0.5c1.8-1,3.9-1.5,6-1.5l0,0"/>
		<path class="st2" d="M56.8,291.5c0.2,2.5,2.8,3.6,5.4,3.9c2.4,0.2,4.7,0.8,6.9,1.8l1.5,0.7c-0.2-6.5-10.3-7.1-7.9-7.1
			c1.2,0,2.8,0,4.2,0c2.3,0,5.2,1.2,5.2,1.2c-0.5-4.2-9.7-5-7.2-5.8c2.5-0.8,7.2,0.7,7.2,0.7l-1-1.7c-6-8.6-14.4-1.8-14.4-1.8"/>
		<path class="st2" d="M83.5,260l-0.6-1.5c-0.4-1.1-0.5-2.3-0.1-3.4c2.1-6.7,15,2.5,10.9,8.7h0"/>
		<path class="st3" d="M88.1,277.2c1.4,2.3,1.3,5.1,0.1,7.4l0.5,0.1"/>
		<path class="st3" d="M86,297.3c1.4,2.3,1.3,5.1,0.1,7.4l0.5,0.1"/>
		<path class="st2" d="M100.3,288.5c3,5.6-1.8,8.8-1.8,8.8"/>
	</g>
	<path class="st4" d="M120.2,275l-3.1,9.8l3.1,2.2c0,0,0.6-0.9,0.8-1c0.2-0.2,1.2-0.6,1.2-0.6l-0.8-2.1c-0.7-2.2-0.9-3.3-1-5.5
		L120.2,275z"/>
</g>
<g>
	<path class="st2" d="M36.3,514.6L36.3,514.6c0.7,0.8,1.4,1.6,2.1,2.3c16.1,16.7,35.1,1.4,35.1,1.4l15-8.4c3.8-2.1,5.5-6.6,4.2-10.8
		l0,0l-12.2-5.6c-2-0.9-3.7-2.3-5-4l-6.5-8.5l-18.1,0.6l-11.9,6.3l-5.6,11.8l3.8,15.5"/>
	<path class="st3" d="M92.4,443.3l-0.3,0c-2.8,0.4-5.6,1.1-8.2,2.2c-14,6.4-15.8,20-15.3,28.8c0.3,5.8,2.7,11.2,6.7,15.3
		c8.5,8.9,17.8,10.1,25.3,8.9c12-2,21.3-11.4,23.1-23.5c1.8-12.4-3-26.7-22.8-31.4C98,443,95.2,442.9,92.4,443.3z"/>
	<path class="st2" d="M69.7,458.8c-4-1.6-6.1,3.7-4.9,6.6c0.1,0.2,0.2,0.4,0.3,0.6c0.8,2,2,3.9,3.4,5.6l-1.2-1.6"/>
	<path class="st2" d="M105.8,498.1L105.8,498.1c0,3.7-3.9,5.9-6.6,3.8c-0.9-0.7-1.4-1.9-1.7-2.4"/>
	<path class="st2" d="M57.2,480.2l0.2-0.5c5.2-7.3,10.2-3.1,10.2-3.1c1.7,1.1,1.3,4.5,1.3,4.5c-1.8,6.7-6.4,4.7-9.3,2.6
		c-1.8-1.3-4-2-6.3-2l0,0l0-0.5c1.9-6.5,5.1-8,7.7-8c2,0,3.8,1,5.1,2.4l0,0"/>
	<path class="st2" d="M46.8,482.3L46.8,482.3c-14.7-8.3-14.1,10.3-14.1,10.3l-0.6-0.3c-11.5-2.7-4.7,7.7-4.7,7.7l1.3,1.5l1.4-2.1
		l2.6,0.1"/>
	<path class="st2" d="M81.1,510.8c0,0,1.5-9.4-4.9-9.6l0,0c0,0,1.4-12.9-9-8.5c-2.4,1-2.3,6.5,1.9,11.1l0,0c0,0-4.7,10,2.6,13.4
		c3.2,1.5,10,3.2,16.5-4.3c2.9-3.4,2.1-8.7-5.9-12.3l0,0"/>
	<path class="st2" d="M53.3,481.8c0,0-16.1-1.7-19.3,17.8"/>
	<path class="st3" d="M77.8,480.3l0.1,0.5c0.3,2.8,2.3,5.2,4.9,6.1l1.3,0.4"/>
	<path class="st3" d="M91.4,481.5c6.3,0.6,7.6,2.8,7.5,8.6"/>
	<path class="st3" d="M76.1,462.9c6.3,0.6,7.6,2.8,7.5,8.6"/>
	<path class="st2" d="M57.5,517.5c0,0,2.9-2.9,2.9-7.7c0-6.1-4.6-17.5-22.7-6.2l-3.7-3.2c-3.5-3-4.9-0.1-5.1,0.7
		c-0.5,2.7-1.5,11.8,5.8,13.2c1,0.2,1.9-0.2,2.7-0.8l1.3-1.2l0.2,0.5c6.3,7.6,12.3,2.7,12.3,2.7"/>
	<g>
		<path class="st5" d="M96.7,449.3l0.7-0.1c6-1.1,11.4-4.3,15.3-8.9l0,0l0.1,13.1l-3.3,2.2L96.7,449.3z"/>
		<path class="st5" d="M127,462.4l-0.7,0.1c-6,1.1-11.4,4.3-15.3,9l0,0l-0.1-13.1l3.3-2.2L127,462.4z"/>
		
			<ellipse transform="matrix(0.8314 -0.5557 0.5557 0.8314 -234.46 139.0069)" class="st5" cx="111.8" cy="455.9" rx="3.9" ry="1.6"/>
	</g>
	<path class="st2" d="M89.8,508.2L89.8,508.2c1-0.7,1.9-1.7,2.4-2.8c0.8-1.9,1-4.1,0.5-6.2l0,0"/>
</g>
</svg>
