<?xml version="1.0" encoding="utf-8"?>
<!-- Generator: Adobe Illustrator 26.3.1, SVG Export Plug-In . SVG Version: 6.00 Build 0)  -->
<svg version="1.1" id="Capa_1" xmlns="http://www.w3.org/2000/svg" xmlns:xlink="http://www.w3.org/1999/xlink" x="0px" y="0px"
	 viewBox="0 0 841.9 356.4" style="enable-background:new 0 0 841.9 356.4;" xml:space="preserve">
<style type="text/css">
	.st0{display:none;fill:#010202;}
	.st1{display:none;fill:url(#SVGID_1_);}
	.st2{display:none;fill:url(#SVGID_00000057148381839328285610000008666402985816671385_);}
	.st3{display:none;fill:url(#SVGID_00000036245482815921724230000007844210014010803589_);}
	.st4{clip-path:url(#SVGID_00000024704793740266318060000009451367068998491058_);}
	.st5{clip-path:url(#SVGID_00000159446465163640576110000011497958656946972067_);fill:#FAEBD1;}
	.st6{clip-path:url(#SVGID_00000026874401925572838810000005294685320367126429_);}
	
		.st7{clip-path:url(#SVGID_00000006682229261971194440000014885436140053688496_);fill:url(#SVGID_00000134957408598127158590000006769558029210561982_);}
	.st8{clip-path:url(#SVGID_00000026872560909458175440000014803181878226809515_);}
	
		.st9{clip-path:url(#SVGID_00000171707091743276408220000003278233904453040520_);fill:url(#SVGID_00000028314579918349270870000008450166153034809234_);}
	.st10{clip-path:url(#SVGID_00000119078970642829463490000010115984693259916930_);}
	
		.st11{clip-path:url(#SVGID_00000104699735620422943570000013122679414190255252_);fill:url(#SVGID_00000167355652931688275710000001093342019617536396_);}
	.st12{clip-path:url(#SVGID_00000149379455690216953950000003979263568755919280_);}
	.st13{clip-path:url(#SVGID_00000150808483645050099020000005217213038458866854_);fill:#FAEBD1;}
	.st14{clip-path:url(#SVGID_00000001639228414358228710000016992635050866559894_);fill:#FAEBD1;}
	.st15{clip-path:url(#SVGID_00000063594223835611331380000006474091908953365668_);fill:#FAEBD1;}
	.st16{display:none;}
	.st17{display:inline;}
	.st18{clip-path:url(#SVGID_00000069399080516400950660000007019730181420809378_);}
	.st19{clip-path:url(#SVGID_00000065768528287008938940000017980279696087765169_);fill:#FAEBD1;}
	.st20{clip-path:url(#SVGID_00000091729070142428010290000002924831042699611057_);}
	
		.st21{clip-path:url(#SVGID_00000169539294417724639740000000550079166101313174_);fill:url(#SVGID_00000022528161015235182380000002990956838707222203_);}
	.st22{clip-path:url(#SVGID_00000031895388552928101140000006964578323304389527_);}
	
		.st23{clip-path:url(#SVGID_00000076590874072052802650000012551151135071873441_);fill:url(#SVGID_00000157290119382720220060000004685267057841866382_);}
	.st24{clip-path:url(#SVGID_00000152234963287374063660000008819721170034938000_);}
	
		.st25{clip-path:url(#SVGID_00000104667461022878928240000000996315141121622446_);fill:url(#SVGID_00000097474753738068351930000013144833818803247234_);}
	.st26{clip-path:url(#SVGID_00000136382743994939440520000017300124295838987409_);}
	.st27{clip-path:url(#SVGID_00000124881382290354777060000012935725932210588310_);fill:#FAEBD1;}
	.st28{clip-path:url(#SVGID_00000174573953244797644740000007382256681126241977_);fill:#FAEBD1;}
	.st29{clip-path:url(#SVGID_00000091008218380022651880000016654452693008036745_);fill:#FAEBD1;}
	.st30{display:inline;fill:url(#SVGID_00000164493172755046045920000003932468463387540123_);}
	.st31{display:inline;fill:url(#SVGID_00000018197773851138670210000014074251583749504667_);}
	.st32{fill:url(#SVGID_00000137121082517302063720000001886601559750381710_);}
	.st33{fill:url(#SVGID_00000156554300733550925100000009673625178744163968_);}
	.st34{fill:url(#SVGID_00000005946394681516867680000002418377334767177349_);}
	.st35{fill:url(#SVGID_00000114032847784161649930000004621291415703129013_);}
	.st36{fill:url(#SVGID_00000119115734889283170170000017990334555488361372_);}
</style>
<rect y="226.9" class="st0" width="841.9" height="391.8"/>
<linearGradient id="SVGID_1_" gradientUnits="userSpaceOnUse" x1="146.1845" y1="334.6428" x2="146.1845" y2="204.5401" gradientTransform="matrix(1 0 0 -1 0 358)">
	<stop  offset="6.703939e-02" style="stop-color:#BF3132"/>
	<stop  offset="0.1248" style="stop-color:#9C3337"/>
	<stop  offset="0.2369" style="stop-color:#63303A"/>
	<stop  offset="0.3316" style="stop-color:#3C2A38"/>
	<stop  offset="0.4041" style="stop-color:#262535"/>
	<stop  offset="0.4458" style="stop-color:#1E2233"/>
</linearGradient>
<path class="st1" d="M124.4,96.5C130,86,136.1,75.7,141.5,65c2.6-5.3,6.1-11.7,5.5-17.8c-1.5-14-16.3-16.4-27.4-14.4
	C98.1,36.7,74.7,45.9,56.5,58C50,62.3,40.3,68.4,39.7,77.1c-0.3,3.7,3.5,13.8,8.6,11.8c2.2-0.9,1.7-4.8,2.8-6.6
	c2.4-4,6.5-7.3,10.3-10c15.4-11.1,33.3-19.1,50.9-25.8c5.7-2.2,11.5-4.1,17.4-5.5c1.9-0.5,5.1-1.6,6.6,0.2c1.6,1.9,0,5.2-0.8,7.1
	c-2.6,6.4-6,12.6-9.5,18.6c-9.4,16.3-19.5,32.2-28.9,48.5c-3.8,6.6-10.3,15.5-10.3,23.4c0,4.8,2.6,9.8,6.5,12.6
	c1.4,1,4.1,2.7,5.9,1.5c1.7-1.1,2.5-6.9,3.6-8.9c3.8-7.4,8.5-14.2,13.1-21c11.9-17.6,25.2-34,38.4-50.5c7-8.7,14.8-20.2,23.9-26.7
	c-7.9,11.9-14.6,25.1-20.7,38c-3.7,7.8-7.9,15.8-10,24.3c-1.7,6.8,0,13.2,5.7,17.6c1.7,1.3,4.5,3,6.8,2.2c2.1-0.7,2.4-5.4,3.3-7.3
	c3.4-6.4,7.8-12.1,12.2-17.8c15.2-19.5,32.8-38.5,52-54.2c-6.3,13.3-16.2,25.5-23.6,38.4c-4.6,8-9,16.1-13.3,24.3
	c-3.9,7.4-11.2,18.8-8.7,27.5c1.2,4.3,4.4,8,8.4,10.1c1.4,0.7,4.1,1.5,5.4,0.2c1.4-1.5,0.9-5.8,1.4-7.8c1.7-6.9,3.7-13.6,6.3-20.2
	c8.4-21.1,19.5-41.3,32-60.2c4.1-6.2,8.6-12.1,13.4-17.8c1.4-1.7,4.7-4,3.7-6.5c-5.3-12.8-21.4-0.6-27.4,4.3
	c-21.9,17.7-39.8,39.3-58.2,60.4c4.2-18.3,14.7-37,24.9-52.6c3.1-4.8,6.6-9.4,10.3-13.7c1.2-1.4,4.1-3.6,3.8-5.7
	c-0.3-2-2.6-3.6-4.2-4.5c-8-4.8-15.9,3.5-21.4,8.5c-13.7,12.4-26,26.6-37.8,40.9C136.6,81.4,131.2,90.5,124.4,96.5z"/>
<linearGradient id="SVGID_00000071534261599416645540000015144910503383835815_" gradientUnits="userSpaceOnUse" x1="248.9348" y1="269.4492" x2="248.9348" y2="193.5" gradientTransform="matrix(1 0 0 -1 0 358)">
	<stop  offset="6.703939e-02" style="stop-color:#BF3132"/>
	<stop  offset="0.1248" style="stop-color:#9C3337"/>
	<stop  offset="0.2369" style="stop-color:#63303A"/>
	<stop  offset="0.3316" style="stop-color:#3C2A38"/>
	<stop  offset="0.4041" style="stop-color:#262535"/>
	<stop  offset="0.4458" style="stop-color:#1E2233"/>
</linearGradient>
<path style="display:none;fill:url(#SVGID_00000071534261599416645540000015144910503383835815_);" d="M286.2,127.7
	c-2.7-1.9-8.1,4.8-9.9,6.5c-5.8,5.1-11.7,10.2-18,14.9c-2.9,2.2-6.3,5.1-10,5.5c0-7.8,5.3-15.9,8.2-23c2.7-6.3,2.7-12.1-4.1-15.7
	c-2.5-1.3-5.3-2.2-7.9-3.1c2-4,5.3-7.3,7.4-11.3c4.5-8.8,0.2-14.2-9.5-12.7c-8.1,1.3-15.8,7-20.5,13.5c-5.7,8,1,13.5,9.2,14.2
	c-2.5,3.6-6.1,6.5-9.2,9.6l-5.4,5.4c-1.7,1.7-5.6,4.3-6.3,6.7c-1.4,4.6,5.5,2.6,7.2,1.4c5.6-4.2,10.5-9.4,15.5-14.3
	c2-2,3.9-5,6.3-6.4c2.1-1.3,5.9,0.2,7.4,1.9c2.2,2.6-2.1,7.7-3.5,9.9c-5.3,8.8-16.3,22.1-5.6,31.2c1.8,1.6,4.3,2.6,6.7,2.6
	c4.9,0,10-3.5,13.8-6.2c7.9-5.6,14.9-11.9,22.1-18.3C282.6,137.8,291.5,131.4,286.2,127.7z M238.2,108.9c-1.3,1.3-3.5,4.1-5.4,2.2
	c-2.1-2-0.3-4.8,1.3-6.4c3.1-3.5,7.8-8,12.7-8.5C246.1,101,241.5,105.6,238.2,108.9z"/>
<linearGradient id="SVGID_00000015320014482252401670000002046708167950645400_" gradientUnits="userSpaceOnUse" x1="287.9039" y1="210.0311" x2="287.9039" y2="190.9108" gradientTransform="matrix(1 0 0 -1 0 358)">
	<stop  offset="6.703939e-02" style="stop-color:#BF3132"/>
	<stop  offset="0.1248" style="stop-color:#9C3337"/>
	<stop  offset="0.2369" style="stop-color:#63303A"/>
	<stop  offset="0.3316" style="stop-color:#3C2A38"/>
	<stop  offset="0.4041" style="stop-color:#262535"/>
	<stop  offset="0.4458" style="stop-color:#1E2233"/>
</linearGradient>
<path style="display:none;fill:url(#SVGID_00000015320014482252401670000002046708167950645400_);" d="M285.3,148.3
	c-3.5,1.5-8,9.5-7.2,13.4c1,5,7.4,6.4,11.4,4.7c3.2-1.4,8.4-4.8,8.3-8.8C297.6,153.1,289.7,146.4,285.3,148.3z"/>
<g>
	<g>
		<g>
			<defs>
				<rect id="SVGID_00000106137670395589744820000007230673305623317938_" x="268.9" y="152.5" width="193.4" height="193.4"/>
			</defs>
			<clipPath id="SVGID_00000159452500942538758050000013458469716597133448_">
				<use xlink:href="#SVGID_00000106137670395589744820000007230673305623317938_"  style="overflow:visible;"/>
			</clipPath>
			<g style="clip-path:url(#SVGID_00000159452500942538758050000013458469716597133448_);">
				<g>
					<defs>
						<rect id="SVGID_00000151522083577764216750000000477487485122229649_" x="268.9" y="152.5" width="193.4" height="193.4"/>
					</defs>
					<clipPath id="SVGID_00000169529745832950779570000015583988220560880790_">
						<use xlink:href="#SVGID_00000151522083577764216750000000477487485122229649_"  style="overflow:visible;"/>
					</clipPath>
					<path style="clip-path:url(#SVGID_00000169529745832950779570000015583988220560880790_);fill:#FAEBD1;" d="M454.1,248.5
						c0,49.2-39.9,89.1-89.1,89.1s-89.1-39.9-89.1-89.1s39.9-89.1,89.1-89.1S454.1,199.3,454.1,248.5"/>
				</g>
			</g>
		</g>
		<g>
			<defs>
				<rect id="SVGID_00000021824243547077718210000013388966634653953157_" x="268.9" y="152.5" width="193.4" height="193.4"/>
			</defs>
			<clipPath id="SVGID_00000161622434305659487010000015748811890988678575_">
				<use xlink:href="#SVGID_00000021824243547077718210000013388966634653953157_"  style="overflow:visible;"/>
			</clipPath>
			<g style="clip-path:url(#SVGID_00000161622434305659487010000015748811890988678575_);">
				<g>
					<defs>
						<path id="SVGID_00000141449884352101206560000014316341502435938436_" d="M362.6,212.4c-4.3,6.7-11.5,16.7-16.6,23.7
							c-4.1,5.7-8,11.5-11.6,17.5l-11,18.1c0.1,0.2,16.4,19.5,44.4,26.5c43.6,10.9,64-18.6,78.2-41.2c12.1-19.2,2.9-41.3,2.9-41.3
							s-41.3-7.6-66.9-7.6C372.2,208.2,364.6,209.3,362.6,212.4"/>
					</defs>
					<clipPath id="SVGID_00000092435803563272499380000014878376903044280205_">
						<use xlink:href="#SVGID_00000141449884352101206560000014316341502435938436_"  style="overflow:visible;"/>
					</clipPath>
					
						<linearGradient id="SVGID_00000040553725504566096070000008048561004601139599_" gradientUnits="userSpaceOnUse" x1="-176.5653" y1="789.1835" x2="-175.5196" y2="789.1835" gradientTransform="matrix(128.904 0 0 128.904 23083.4805 -101470.2188)">
						<stop  offset="0" style="stop-color:#FFDEA5"/>
						<stop  offset="5.327790e-09" style="stop-color:#FFDEA5"/>
						<stop  offset="8.424558e-02" style="stop-color:#FCCB8F"/>
						<stop  offset="0.3804" style="stop-color:#F08048"/>
						<stop  offset="0.7229" style="stop-color:#E73330"/>
						<stop  offset="0.9106" style="stop-color:#E73531"/>
						<stop  offset="1" style="stop-color:#E73531"/>
					</linearGradient>
					
						<rect x="323.5" y="208.2" style="clip-path:url(#SVGID_00000092435803563272499380000014878376903044280205_);fill:url(#SVGID_00000040553725504566096070000008048561004601139599_);" width="134.8" height="101"/>
				</g>
			</g>
		</g>
		<g>
			<defs>
				<rect id="SVGID_00000137117278851386149160000006289293892172703625_" x="268.9" y="152.5" width="193.4" height="193.4"/>
			</defs>
			<clipPath id="SVGID_00000071533318183883027370000012740395277635229338_">
				<use xlink:href="#SVGID_00000137117278851386149160000006289293892172703625_"  style="overflow:visible;"/>
			</clipPath>
			<g style="clip-path:url(#SVGID_00000071533318183883027370000012740395277635229338_);">
				<g>
					<defs>
						<path id="SVGID_00000062883179000544149750000005250751448295899312_" d="M276.4,267.2c9.9,50.2,57.1,77.6,105,70.8
							c47.9-6.8,91-67.6,68-121.5c-18.2-42.6-34.9-25.4-30-5.3c0.9,3.5,22.1-1.9,30.2,7.3c3.3,3.7,0.4,18.8-0.9,24.6
							c-0.3,1.4-0.6,2.8-0.8,4.2c-1.5,9.2-10.3,50-53.2,67.3c-20.9,8.4-50.4,1.6-66-12.7c-22.4-20.5-26.3-41.3-26.4-59.9
							c0-34.5,36.7-54.7,36.7-54.7S266.5,217,276.4,267.2"/>
					</defs>
					<clipPath id="SVGID_00000146472556681232071700000008809471084879571594_">
						<use xlink:href="#SVGID_00000062883179000544149750000005250751448295899312_"  style="overflow:visible;"/>
					</clipPath>
					
						<linearGradient id="SVGID_00000109749320069431931670000010952581643425940915_" gradientUnits="userSpaceOnUse" x1="-177.0241" y1="788.4495" x2="-175.882" y2="788.4495" gradientTransform="matrix(180.2868 0 0 180.2868 32181.6133 -141887.6875)">
						<stop  offset="0" style="stop-color:#1D1F35"/>
						<stop  offset="0.1065" style="stop-color:#2D2838"/>
						<stop  offset="0.2387" style="stop-color:#3F333C"/>
						<stop  offset="0.3089" style="stop-color:#46383D"/>
						<stop  offset="0.3567" style="stop-color:#4C393E"/>
						<stop  offset="0.4265" style="stop-color:#5E3D3F"/>
						<stop  offset="0.5099" style="stop-color:#7C403E"/>
						<stop  offset="0.6028" style="stop-color:#A83D38"/>
						<stop  offset="0.6799" style="stop-color:#D5302F"/>
						<stop  offset="0.7552" style="stop-color:#DE3330"/>
						<stop  offset="0.8525" style="stop-color:#E73531"/>
						<stop  offset="1" style="stop-color:#E73531"/>
					</linearGradient>
					
						<rect x="266.5" y="173.9" style="clip-path:url(#SVGID_00000146472556681232071700000008809471084879571594_);fill:url(#SVGID_00000109749320069431931670000010952581643425940915_);" width="205.9" height="170.9"/>
				</g>
			</g>
		</g>
		<g>
			<defs>
				<rect id="SVGID_00000160889554139612968090000007215703407231470521_" x="268.9" y="152.5" width="193.4" height="193.4"/>
			</defs>
			<clipPath id="SVGID_00000170277930713120228640000008196198978085737146_">
				<use xlink:href="#SVGID_00000160889554139612968090000007215703407231470521_"  style="overflow:visible;"/>
			</clipPath>
			<g style="clip-path:url(#SVGID_00000170277930713120228640000008196198978085737146_);">
				<g>
					<defs>
						<path id="SVGID_00000009587428446961458860000002328347550769175970_" d="M359.6,244.2c12.8,38.5,51.6,35.3,69.2,21.6
							c15.3-11.9,26.9-34,20.5-50c-9.4-23.7-26.5-37.3-41.2-45.3c-15.4-8.4-28.1-9.9-28.1-9.9S344.1,197.5,359.6,244.2"/>
					</defs>
					<clipPath id="SVGID_00000029735112041181216480000011478569886048004772_">
						<use xlink:href="#SVGID_00000009587428446961458860000002328347550769175970_"  style="overflow:visible;"/>
					</clipPath>
					
						<linearGradient id="SVGID_00000045606352126690411380000012059551278746198423_" gradientUnits="userSpaceOnUse" x1="-175.2349" y1="789.0842" x2="-173.6899" y2="789.0842" gradientTransform="matrix(89.3137 33.8 -33.8 89.3137 42652.8516 -64357.4961)">
						<stop  offset="0" style="stop-color:#BBC5C2"/>
						<stop  offset="1.823710e-02" style="stop-color:#BBC5C2"/>
						<stop  offset="0.521" style="stop-color:#5B6872"/>
						<stop  offset="0.6202" style="stop-color:#4D5965"/>
						<stop  offset="0.8166" style="stop-color:#303646"/>
						<stop  offset="0.9385" style="stop-color:#1F2333"/>
						<stop  offset="1" style="stop-color:#1F2333"/>
					</linearGradient>
					
						<polygon style="clip-path:url(#SVGID_00000029735112041181216480000011478569886048004772_);fill:url(#SVGID_00000045606352126690411380000012059551278746198423_);" points="
						358.1,123.8 496.1,176 441.7,319.6 303.8,267.4 					"/>
				</g>
			</g>
		</g>
		<g>
			<defs>
				<rect id="SVGID_00000083790883358756354370000013072578129371265454_" x="268.9" y="152.5" width="193.4" height="193.4"/>
			</defs>
			<clipPath id="SVGID_00000085226529239231748220000016008671850303853232_">
				<use xlink:href="#SVGID_00000083790883358756354370000013072578129371265454_"  style="overflow:visible;"/>
			</clipPath>
			<g style="clip-path:url(#SVGID_00000085226529239231748220000016008671850303853232_);">
				<g>
					<defs>
						<rect id="SVGID_00000147922667521251356480000002856634678209225600_" x="268.9" y="152.5" width="193.4" height="193.4"/>
					</defs>
					<clipPath id="SVGID_00000099620468424135390700000014157253963827280283_">
						<use xlink:href="#SVGID_00000147922667521251356480000002856634678209225600_"  style="overflow:visible;"/>
					</clipPath>
					<path style="clip-path:url(#SVGID_00000099620468424135390700000014157253963827280283_);fill:#FAEBD1;" d="M386.2,219.1
						c0.7,15.5,26.3,10.9,27.2,27.8c0.6,10.4-9.9,17.1-19.4,15.1c-7.8-1.6-14.1-8.4-16.4-15.8h-0.4c1.5,9.2,8.9,17.8,18,20.1
						c13.8,3.4,25-8,22.9-21.7c-2.4-15.1-18.4-12.3-27.7-19.3C388.2,223.6,387.3,221.5,386.2,219.1"/>
				</g>
				<g>
					<defs>
						<rect id="SVGID_00000109005017199540852760000006220740169317188001_" x="268.9" y="152.5" width="193.4" height="193.4"/>
					</defs>
					<clipPath id="SVGID_00000117646653034514499800000011020166789987423111_">
						<use xlink:href="#SVGID_00000109005017199540852760000006220740169317188001_"  style="overflow:visible;"/>
					</clipPath>
					<path style="clip-path:url(#SVGID_00000117646653034514499800000011020166789987423111_);fill:#FAEBD1;" d="M398.1,236.9
						c-9.6,2.4-5.3,16.8,4.1,14.6C411.8,249.2,407.4,234.6,398.1,236.9"/>
				</g>
				<g>
					<defs>
						<rect id="SVGID_00000113324587864136908590000014174726958749225392_" x="268.9" y="152.5" width="193.4" height="193.4"/>
					</defs>
					<clipPath id="SVGID_00000089561213456905958200000009911963668257574568_">
						<use xlink:href="#SVGID_00000113324587864136908590000014174726958749225392_"  style="overflow:visible;"/>
					</clipPath>
					<path style="clip-path:url(#SVGID_00000089561213456905958200000009911963668257574568_);fill:#FAEBD1;" d="M390,216
						c-2.5,1.5-0.4,5.2,2.1,3.9C394.8,218.6,392.7,214.4,390,216"/>
				</g>
			</g>
		</g>
	</g>
</g>
<g class="st16">
	<g class="st17">
		<g>
			<defs>
				<rect id="SVGID_00000019651518455977221050000014439700448146286778_" x="258" y="396.1" width="193.4" height="193.4"/>
			</defs>
			<clipPath id="SVGID_00000023278184121088041570000008565025208205011866_">
				<use xlink:href="#SVGID_00000019651518455977221050000014439700448146286778_"  style="overflow:visible;"/>
			</clipPath>
			<g style="clip-path:url(#SVGID_00000023278184121088041570000008565025208205011866_);">
				<g>
					<defs>
						<rect id="SVGID_00000011745546537269516260000001063126020116082566_" x="258" y="396.1" width="193.4" height="193.4"/>
					</defs>
					<clipPath id="SVGID_00000069378062049003031030000015323819261876932515_">
						<use xlink:href="#SVGID_00000011745546537269516260000001063126020116082566_"  style="overflow:visible;"/>
					</clipPath>
					<path style="clip-path:url(#SVGID_00000069378062049003031030000015323819261876932515_);fill:#FAEBD1;" d="M443.2,492.1
						c0,49.2-39.9,89.1-89.1,89.1S265,541.3,265,492.1s39.9-89.1,89.1-89.1S443.2,442.9,443.2,492.1"/>
				</g>
			</g>
		</g>
		<g>
			<defs>
				<rect id="SVGID_00000178903010195446541270000008282197121679607952_" x="258" y="396.1" width="193.4" height="193.4"/>
			</defs>
			<clipPath id="SVGID_00000106123082970615101220000007982502833316529027_">
				<use xlink:href="#SVGID_00000178903010195446541270000008282197121679607952_"  style="overflow:visible;"/>
			</clipPath>
			<g style="clip-path:url(#SVGID_00000106123082970615101220000007982502833316529027_);">
				<g>
					<defs>
						<path id="SVGID_00000145764100767959255560000011060670206419729312_" d="M351.7,456c-4.3,6.7-11.5,16.7-16.6,23.7
							c-4.1,5.7-8,11.5-11.6,17.5l-11,18.1c0.1,0.2,16.4,19.5,44.4,26.5c43.6,10.9,64-18.6,78.2-41.2c12.1-19.2,2.9-41.3,2.9-41.3
							s-41.3-7.6-66.9-7.6C361.3,451.7,353.7,452.9,351.7,456"/>
					</defs>
					<clipPath id="SVGID_00000127736035613827874710000015965907616512371359_">
						<use xlink:href="#SVGID_00000145764100767959255560000011060670206419729312_"  style="overflow:visible;"/>
					</clipPath>
					
						<linearGradient id="SVGID_00000076573082233173680690000010228613526387539888_" gradientUnits="userSpaceOnUse" x1="-176.6189" y1="788.1252" x2="-175.5731" y2="788.1252" gradientTransform="matrix(128.904 0 0 128.904 23079.4805 -101090.3047)">
						<stop  offset="0" style="stop-color:#FFDEA5"/>
						<stop  offset="5.327790e-09" style="stop-color:#FFDEA5"/>
						<stop  offset="8.424558e-02" style="stop-color:#FCCB8F"/>
						<stop  offset="0.3804" style="stop-color:#F08048"/>
						<stop  offset="0.7229" style="stop-color:#E73330"/>
						<stop  offset="0.9106" style="stop-color:#E73531"/>
						<stop  offset="1" style="stop-color:#E73531"/>
					</linearGradient>
					
						<rect x="312.6" y="451.7" style="clip-path:url(#SVGID_00000127736035613827874710000015965907616512371359_);fill:url(#SVGID_00000076573082233173680690000010228613526387539888_);" width="134.8" height="101"/>
				</g>
			</g>
		</g>
		<g>
			<defs>
				<rect id="SVGID_00000137811176156860257170000016515381227946004639_" x="258" y="396.1" width="193.4" height="193.4"/>
			</defs>
			<clipPath id="SVGID_00000093863020234330952490000016842200816613020813_">
				<use xlink:href="#SVGID_00000137811176156860257170000016515381227946004639_"  style="overflow:visible;"/>
			</clipPath>
			<g style="clip-path:url(#SVGID_00000093863020234330952490000016842200816613020813_);">
				<g>
					<defs>
						<path id="SVGID_00000152968387037256738250000008158835033914805948_" d="M265.5,510.8c9.9,50.2,57.1,77.6,105,70.8
							s91-67.6,68-121.5c-18.2-42.6-34.9-25.4-30-5.3c0.9,3.5,22.1-1.9,30.2,7.3c3.3,3.7,0.4,18.8-0.9,24.6
							c-0.3,1.4-0.6,2.8-0.8,4.2c-1.5,9.2-10.3,50-53.2,67.3c-20.9,8.4-50.4,1.6-66-12.7c-22.4-20.5-26.3-41.3-26.4-59.9
							c0-34.5,36.7-54.7,36.7-54.7S255.6,460.6,265.5,510.8"/>
					</defs>
					<clipPath id="SVGID_00000070082503054599036980000013924053038030394793_">
						<use xlink:href="#SVGID_00000152968387037256738250000008158835033914805948_"  style="overflow:visible;"/>
					</clipPath>
					
						<linearGradient id="SVGID_00000039849187709243501970000007699101884093992598_" gradientUnits="userSpaceOnUse" x1="-177.0624" y1="787.6933" x2="-175.9203" y2="787.6933" gradientTransform="matrix(180.2868 0 0 180.2868 32177.6133 -141507.7656)">
						<stop  offset="0" style="stop-color:#1D1F35"/>
						<stop  offset="0.1065" style="stop-color:#2D2838"/>
						<stop  offset="0.2387" style="stop-color:#3F333C"/>
						<stop  offset="0.3089" style="stop-color:#46383D"/>
						<stop  offset="0.3567" style="stop-color:#4C393E"/>
						<stop  offset="0.4265" style="stop-color:#5E3D3F"/>
						<stop  offset="0.5099" style="stop-color:#7C403E"/>
						<stop  offset="0.6028" style="stop-color:#A83D38"/>
						<stop  offset="0.6799" style="stop-color:#D5302F"/>
						<stop  offset="0.7552" style="stop-color:#DE3330"/>
						<stop  offset="0.8525" style="stop-color:#E73531"/>
						<stop  offset="1" style="stop-color:#E73531"/>
					</linearGradient>
					
						<rect x="255.6" y="417.5" style="clip-path:url(#SVGID_00000070082503054599036980000013924053038030394793_);fill:url(#SVGID_00000039849187709243501970000007699101884093992598_);" width="205.9" height="170.9"/>
				</g>
			</g>
		</g>
		<g>
			<defs>
				<rect id="SVGID_00000139982464525943030180000005643613192469702792_" x="258" y="396.1" width="193.4" height="193.4"/>
			</defs>
			<clipPath id="SVGID_00000072250564200639438370000012991118690461547450_">
				<use xlink:href="#SVGID_00000139982464525943030180000005643613192469702792_"  style="overflow:visible;"/>
			</clipPath>
			<g style="clip-path:url(#SVGID_00000072250564200639438370000012991118690461547450_);">
				<g>
					<defs>
						<path id="SVGID_00000041263852549702184860000000180522812596408477_" d="M348.7,487.8c12.8,38.5,51.6,35.3,69.2,21.6
							c15.3-11.9,26.9-34,20.5-50c-9.4-23.7-26.5-37.3-41.2-45.3c-15.4-8.4-28.1-9.9-28.1-9.9S333.2,441.1,348.7,487.8"/>
					</defs>
					<clipPath id="SVGID_00000022549267863768150870000017570121405262909841_">
						<use xlink:href="#SVGID_00000041263852549702184860000000180522812596408477_"  style="overflow:visible;"/>
					</clipPath>
					
						<linearGradient id="SVGID_00000039819532527402507320000015331122530720064168_" gradientUnits="userSpaceOnUse" x1="-175.8083" y1="787.7748" x2="-174.2627" y2="787.7748" gradientTransform="matrix(89.3137 33.8 -33.8 89.3137 42648.8516 -63977.582)">
						<stop  offset="0" style="stop-color:#BBC5C2"/>
						<stop  offset="1.823710e-02" style="stop-color:#BBC5C2"/>
						<stop  offset="0.521" style="stop-color:#5B6872"/>
						<stop  offset="0.6202" style="stop-color:#4D5965"/>
						<stop  offset="0.8166" style="stop-color:#303646"/>
						<stop  offset="0.9385" style="stop-color:#1F2333"/>
						<stop  offset="1" style="stop-color:#1F2333"/>
					</linearGradient>
					
						<polygon style="clip-path:url(#SVGID_00000022549267863768150870000017570121405262909841_);fill:url(#SVGID_00000039819532527402507320000015331122530720064168_);" points="
						347.2,367.4 485.2,419.6 430.8,563.2 292.8,511 					"/>
				</g>
			</g>
		</g>
		<g>
			<defs>
				<rect id="SVGID_00000135685454721587933850000017032065211680620439_" x="258" y="396.1" width="193.4" height="193.4"/>
			</defs>
			<clipPath id="SVGID_00000149343982787814411980000002197044920938050216_">
				<use xlink:href="#SVGID_00000135685454721587933850000017032065211680620439_"  style="overflow:visible;"/>
			</clipPath>
			<g style="clip-path:url(#SVGID_00000149343982787814411980000002197044920938050216_);">
				<g>
					<defs>
						<rect id="SVGID_00000076567762900002293800000017217021122417978002_" x="258" y="396.1" width="193.4" height="193.4"/>
					</defs>
					<clipPath id="SVGID_00000135687363510508578910000011105641974267294083_">
						<use xlink:href="#SVGID_00000076567762900002293800000017217021122417978002_"  style="overflow:visible;"/>
					</clipPath>
					<path style="clip-path:url(#SVGID_00000135687363510508578910000011105641974267294083_);fill:#FAEBD1;" d="M375.2,462.7
						c0.7,15.5,26.3,10.9,27.2,27.8c0.6,10.4-9.9,17.1-19.4,15.1c-7.8-1.6-14.1-8.4-16.4-15.8h-0.4c1.5,9.2,8.9,17.8,18,20.1
						c13.8,3.4,25-8,22.9-21.7c-2.4-15.1-18.4-12.3-27.7-19.3C377.3,467.2,376.4,465.1,375.2,462.7"/>
				</g>
				<g>
					<defs>
						<rect id="SVGID_00000173872446014870938650000010828734216167945618_" x="258" y="396.1" width="193.4" height="193.4"/>
					</defs>
					<clipPath id="SVGID_00000061438795779107224640000016602838665592415132_">
						<use xlink:href="#SVGID_00000173872446014870938650000010828734216167945618_"  style="overflow:visible;"/>
					</clipPath>
					<path style="clip-path:url(#SVGID_00000061438795779107224640000016602838665592415132_);fill:#FAEBD1;" d="M387.2,480.5
						c-9.6,2.4-5.3,16.8,4.1,14.6C400.9,492.8,396.5,478.1,387.2,480.5"/>
				</g>
				<g>
					<defs>
						<rect id="SVGID_00000070836397177571644250000004555457285964701331_" x="258" y="396.1" width="193.4" height="193.4"/>
					</defs>
					<clipPath id="SVGID_00000028290428643411641110000003394291195704425884_">
						<use xlink:href="#SVGID_00000070836397177571644250000004555457285964701331_"  style="overflow:visible;"/>
					</clipPath>
					<path style="clip-path:url(#SVGID_00000028290428643411641110000003394291195704425884_);fill:#FAEBD1;" d="M379,459.6
						c-2.5,1.5-0.4,5.2,2.1,3.9C383.9,462.2,381.8,458,379,459.6"/>
				</g>
			</g>
		</g>
	</g>
</g>
<g class="st16">
	
		<linearGradient id="SVGID_00000010296102909645198480000015410939052095506055_" gradientUnits="userSpaceOnUse" x1="462.4629" y1="334.8912" x2="462.4629" y2="153.4185" gradientTransform="matrix(1 0 0 -1 0 358)">
		<stop  offset="6.703939e-02" style="stop-color:#BF3132"/>
		<stop  offset="0.1248" style="stop-color:#9C3337"/>
		<stop  offset="0.2369" style="stop-color:#63303A"/>
		<stop  offset="0.3316" style="stop-color:#3C2A38"/>
		<stop  offset="0.4041" style="stop-color:#262535"/>
		<stop  offset="0.4458" style="stop-color:#1E2233"/>
	</linearGradient>
	<path style="display:inline;fill:url(#SVGID_00000010296102909645198480000015410939052095506055_);" d="M443.6,128.3
		c0.6-6,5.8-12.1,8.9-17.1c8-13.5,17.2-26.2,24.9-39.9c4.1-7.4,10.2-17.3,6.5-26c-6-13.8-18.7-14.2-31.4-12
		c-23.8,4-49.2,14.9-69.5,27.6c-8.8,5.5-24.2,15.1-20.7,27.5c0.9,3.3,4.9,11,9.5,9c2.1-0.9,2.4-6.1,3.6-8.1c3-4.6,7.8-8.1,12.2-11.3
		c17.4-12.5,37.4-20.5,57-28.7c6.5-2.7,13.5-5.2,20.4-6.6c2.2-0.4,5.8-1.5,7.7,0.1c2.1,1.7,0.3,5.1-0.5,7.1
		c-2.6,6-6.7,11.4-10.5,16.7c-8.1,11.3-16.7,22.5-24,34.3c-3.4,5.5-7.3,11.2-8.9,17.6c-2.7,10.6,4.4,23.1,16.7,20
		c8.9-2.2,16.6-10.6,23.2-16.4c7.4-6.5,14-13.7,20.9-20.7c10-10.1,18.7-21.5,28.7-31.5c-9.3,17.6-20,34.6-29.9,51.9
		c-6.2,10.8-12.1,21.8-17.8,32.9c-3.9,7.6-7.7,15.2-10.9,23.2c-1.3,3.4-3.4,7.4-2.7,11.1c1,5.8,4.3,10.9,9.4,13.9
		c1.8,1.1,4.9,2.7,6.8,0.8c2.3-2.4,1.6-9.5,2.5-12.8c3-10.9,6.9-21.6,11.4-32c14.8-34.2,32.8-68,54.1-98.7c4.8-6.9,9.6-13.9,15-20.4
		c1.9-2.3,6.5-5.8,6.9-8.8c0.5-3.4-4.6-6.5-7.2-7.4c-5-1.7-7.8,1.3-11.1,4.6c-6.2,6.2-11.9,12.8-18.1,19
		C506.7,67,488,88,468.1,107.9c-5.4,5.4-10.8,10.9-16.7,15.7C449,125.5,446.8,127.9,443.6,128.3z"/>
	
		<linearGradient id="SVGID_00000166669408118704200910000017461641534890222476_" gradientUnits="userSpaceOnUse" x1="654.3509" y1="270.484" x2="654.3509" y2="152.0611" gradientTransform="matrix(1 0 0 -1 0 358)">
		<stop  offset="6.703939e-02" style="stop-color:#BF3132"/>
		<stop  offset="0.1248" style="stop-color:#9C3337"/>
		<stop  offset="0.2369" style="stop-color:#63303A"/>
		<stop  offset="0.3316" style="stop-color:#3C2A38"/>
		<stop  offset="0.4041" style="stop-color:#262535"/>
		<stop  offset="0.4458" style="stop-color:#1E2233"/>
	</linearGradient>
	<path style="display:inline;fill:url(#SVGID_00000166669408118704200910000017461641534890222476_);" d="M801.2,126.8
		c-5.8,4.3-25.8,25.4-31.7,23.2c-2.2-2.1-0.3-6.7,0.1-9.1c1.4-6.6,3.8-13.2,6.7-19.4c1-2.2,4.2-5.5,3.7-8.1
		c-7.7-20.7-43,24-51.1,30.3c3.3-6.5,6.7-12.8,11.2-18.6c1.6-2.1,5.8-5.4,6-8.1c0.4-5.7-8.8-7.7-12.3-5c-5.1,3.9-6.8,10.2-10.9,14.7
		c-6.9,7.9-51.8,45-54.4,21.8c16.1,0.4,50.4-34.4,33.1-48.1c-12.4-8.7-25.7,8.5-32.4,17c-3.6,6-5.7,8.8-13.2,9.1
		c-5.2,1.4-10.1,4.4-15.3,5.7c-2.5,0.6-2.6-3.9-3.5-5.4c-6.9-10.6-18,0.9-24.8,5.7c-21.3,14.4,16.9-37.9,23.8-35.5
		c3.8-0.1,4.9,7,8.1,5.5c4.7-2.2,1.3-9-1.3-11.3c-8.9-8.1-20.5-0.4-27.8,5.9c-9.7,8.1-16.6,18.9-22.7,29.8c-4,4.9-9.6,8.9-14.4,12.9
		c-5,3.6-9.7,9.1-15.7,10.8c-5.7-3.4,7.1-28.2,9.4-33.8c1.2-2.5,4.5-6.1,4.6-8.9c0.1-2.9-3.1-5.7-5.5-6.7
		c-5.9-2.6-11.9,7.8-15.1,11.6c-9.4,11-18.3,22.4-28.1,33.1c-2.4,2.7-6.7,9.8-10.5,10.4c-9.1-0.9,21.5-41.5,23.1-45.5
		c0.5-3.2-4.7-6.5-7.4-6.9c-5.5-0.8-9,6.3-11.6,10.1c-7.7,12.5-17.6,25.3-20.2,40c-0.3,6.8,4.8,14.3,12.5,12.3
		c7.7-3.2,13.2-10.6,19-16.3c5.5-6.1,10.9-12.5,16.5-18.6c-1,4.8-3.7,9.2-4.3,14.1c-1.1,8.2,5.8,17.5,14.8,14.8
		c12.6-3.7,21.2-15.2,31.5-22.5c6.3,19.6,26.4-1,35.1-7.3c4.6,15.2-46,30.3-57.4,55.7c-7.9,15,13.1,26.3,24.3,15.9
		c18.1-12.9,30.4-33.1,40.3-52.6c2.7-10,16.4-13.6,25.1-16.1c-1.7,5.8-5.4,10.7-6,17c-1.1,11,9,17.3,18.9,15.9
		c18.1-2.5,30.4-14.1,44.8-24c-1.7,7.2-5,12.8-0.4,19.8c1.3,1.9,4.9,5.6,7.5,4c8.4-17.2,23.4-34,39.2-45.2c-3.4,7.6-6.4,16-7.8,24.2
		c-2.8,11.8,8.7,19.9,18.7,12.9c9-5,17.1-12,24.6-18.9c2.6-2.4,9.3-6.7,9.6-10.5C807.9,123.4,803.5,124.7,801.2,126.8z M696.6,103
		c-2.9,13-12.2,29-25.4,33.5C675.7,124.4,685.7,109.9,696.6,103z M579.6,192.8c-3.9-7,19.7-24.2,24.9-28.7c3-2.4,6.2-5.4,9.7-7
		C609.9,164.4,588.1,196.4,579.6,192.8z"/>
</g>
<g>
	
		<linearGradient id="SVGID_00000111181598639336078910000017067325444474329217_" gradientUnits="userSpaceOnUse" x1="146.1845" y1="333.666" x2="146.1845" y2="203.5633" gradientTransform="matrix(1 0 0 -1 0 358)">
		<stop  offset="6.703939e-02" style="stop-color:#BF3132"/>
		<stop  offset="0.1829" style="stop-color:#D36148"/>
		<stop  offset="0.3016" style="stop-color:#E68C60"/>
		<stop  offset="0.3932" style="stop-color:#F3A771"/>
		<stop  offset="0.4458" style="stop-color:#F8B178"/>
	</linearGradient>
	<path style="fill:url(#SVGID_00000111181598639336078910000017067325444474329217_);" d="M124.4,97.5c5.6-10.6,11.7-20.8,17.1-31.5
		c2.6-5.3,6.1-11.7,5.5-17.8c-1.5-14-16.3-16.4-27.4-14.4C98.1,37.7,74.7,46.9,56.5,59C50,63.3,40.3,69.4,39.7,78.1
		c-0.3,3.7,3.5,13.8,8.6,11.8c2.2-0.9,1.7-4.8,2.8-6.6c2.4-4,6.5-7.3,10.3-10c15.4-11.1,33.3-19.1,50.9-25.8
		c5.7-2.2,11.5-4.1,17.4-5.5c1.9-0.5,5.1-1.6,6.6,0.2c1.6,1.9,0,5.2-0.8,7.1c-2.6,6.4-6,12.6-9.5,18.6
		c-9.4,16.3-19.5,32.2-28.9,48.5c-3.8,6.6-10.3,15.5-10.3,23.4c0,4.8,2.6,9.8,6.5,12.6c1.4,1,4.1,2.7,5.9,1.5
		c1.7-1.1,2.5-6.9,3.6-8.9c3.8-7.4,8.5-14.2,13.1-21c11.9-17.6,25.2-34,38.4-50.5c7-8.7,14.8-20.2,23.9-26.7
		c-7.9,11.9-14.6,25.1-20.7,38c-3.7,7.8-7.9,15.8-10,24.3c-1.7,6.8,0,13.2,5.7,17.6c1.7,1.3,4.5,3,6.8,2.2c2.1-0.7,2.4-5.4,3.3-7.3
		c3.4-6.4,7.8-12.1,12.2-17.8c15.2-19.5,32.8-38.5,52-54.2c-6.3,13.3-16.2,25.5-23.6,38.4c-4.6,8-9,16.1-13.3,24.3
		c-3.9,7.4-11.2,18.8-8.7,27.5c1.2,4.3,4.4,8,8.4,10.1c1.4,0.7,4.1,1.5,5.4,0.2c1.4-1.5,0.9-5.8,1.4-7.8c1.7-6.9,3.7-13.6,6.3-20.2
		c8.4-21.1,19.5-41.3,32-60.2c4.1-6.2,8.6-12.1,13.4-17.8c1.4-1.7,4.7-4,3.7-6.5c-5.3-12.8-21.4-0.6-27.4,4.3
		c-21.9,17.7-39.8,39.3-58.2,60.4c4.2-18.3,14.7-37,24.9-52.6c3.1-4.8,6.6-9.4,10.3-13.7c1.2-1.4,4.1-3.6,3.8-5.7
		c-0.3-2-2.6-3.6-4.2-4.5c-8-4.8-15.9,3.5-21.4,8.5c-13.7,12.4-26,26.6-37.8,40.9C136.6,82.4,131.2,91.5,124.4,97.5z"/>
	
		<linearGradient id="SVGID_00000165198141680695687770000011986685023262368159_" gradientUnits="userSpaceOnUse" x1="248.9348" y1="268.4725" x2="248.9348" y2="192.5232" gradientTransform="matrix(1 0 0 -1 0 358)">
		<stop  offset="6.703939e-02" style="stop-color:#BF3132"/>
		<stop  offset="0.1829" style="stop-color:#D36148"/>
		<stop  offset="0.3016" style="stop-color:#E68C60"/>
		<stop  offset="0.3932" style="stop-color:#F3A771"/>
		<stop  offset="0.4458" style="stop-color:#F8B178"/>
	</linearGradient>
	<path style="fill:url(#SVGID_00000165198141680695687770000011986685023262368159_);" d="M286.2,128.7c-2.7-1.9-8.1,4.8-9.9,6.5
		c-5.8,5.1-11.7,10.2-18,14.9c-2.9,2.2-6.3,5.1-10,5.5c0-7.8,5.3-15.9,8.2-23c2.7-6.3,2.7-12.1-4.1-15.7c-2.5-1.3-5.3-2.2-7.9-3.1
		c2-4,5.3-7.3,7.4-11.3c4.5-8.8,0.2-14.2-9.5-12.7c-8.1,1.3-15.8,7-20.5,13.5c-5.7,8,1,13.5,9.2,14.2c-2.5,3.6-6.1,6.5-9.2,9.6
		l-5.4,5.4c-1.7,1.7-5.6,4.3-6.3,6.7c-1.4,4.6,5.5,2.6,7.2,1.4c5.6-4.2,10.5-9.4,15.5-14.3c2-2,3.9-5,6.3-6.4
		c2.1-1.3,5.9,0.2,7.4,1.9c2.2,2.6-2.1,7.7-3.5,9.9c-5.3,8.8-16.3,22.1-5.6,31.2c1.8,1.6,4.3,2.6,6.7,2.6c4.9,0,10-3.5,13.8-6.2
		c7.9-5.6,14.9-11.9,22.1-18.3C282.6,138.8,291.5,132.4,286.2,128.7z M238.2,109.9c-1.3,1.3-3.5,4.1-5.4,2.2c-2.1-2-0.3-4.8,1.3-6.4
		c3.1-3.5,7.8-8,12.7-8.5C246.1,102,241.5,106.6,238.2,109.9z"/>
	
		<linearGradient id="SVGID_00000109728756582868401150000007305213705544905887_" gradientUnits="userSpaceOnUse" x1="287.8039" y1="209.0544" x2="287.8039" y2="189.934" gradientTransform="matrix(1 0 0 -1 0 358)">
		<stop  offset="6.703939e-02" style="stop-color:#BF3132"/>
		<stop  offset="0.1829" style="stop-color:#D36148"/>
		<stop  offset="0.3016" style="stop-color:#E68C60"/>
		<stop  offset="0.3932" style="stop-color:#F3A771"/>
		<stop  offset="0.4458" style="stop-color:#F8B178"/>
	</linearGradient>
	<path style="fill:url(#SVGID_00000109728756582868401150000007305213705544905887_);" d="M285.2,149.3c-3.5,1.5-8,9.5-7.2,13.4
		c1,5,7.4,6.4,11.4,4.7c3.2-1.4,8.4-4.8,8.3-8.8C297.6,154.1,289.7,147.4,285.2,149.3z"/>
</g>
<g>
	
		<linearGradient id="SVGID_00000114793265697822263640000007813050537240127897_" gradientUnits="userSpaceOnUse" x1="462.4629" y1="335.6667" x2="462.4629" y2="154.194" gradientTransform="matrix(1 0 0 -1 0 358)">
		<stop  offset="6.703939e-02" style="stop-color:#BF3132"/>
		<stop  offset="0.1829" style="stop-color:#D36148"/>
		<stop  offset="0.3016" style="stop-color:#E68C60"/>
		<stop  offset="0.3932" style="stop-color:#F3A771"/>
		<stop  offset="0.4458" style="stop-color:#F8B178"/>
	</linearGradient>
	<path style="fill:url(#SVGID_00000114793265697822263640000007813050537240127897_);" d="M443.6,127.5c0.6-6,5.8-12.1,8.9-17.1
		c8-13.5,17.2-26.2,24.9-39.9c4.1-7.4,10.2-17.3,6.5-26c-6-13.8-18.7-14.2-31.4-12c-23.8,4-49.2,14.9-69.5,27.6
		c-8.8,5.5-24.2,15.1-20.7,27.5c0.9,3.3,4.9,11,9.5,9c2.1-0.9,2.4-6.1,3.6-8.1c3-4.6,7.8-8.1,12.2-11.3c17.4-12.5,37.4-20.5,57-28.7
		c6.5-2.7,13.5-5.2,20.4-6.6c2.2-0.4,5.8-1.5,7.7,0.1c2.1,1.7,0.3,5.1-0.5,7.1c-2.6,6-6.7,11.4-10.5,16.7
		c-8.1,11.3-16.7,22.5-24,34.3c-3.4,5.5-7.3,11.2-8.9,17.6c-2.7,10.6,4.4,23.1,16.7,20c8.9-2.2,16.6-10.6,23.2-16.4
		c7.4-6.5,14-13.7,20.9-20.7c10-10.1,18.7-21.5,28.7-31.5c-9.3,17.6-20,34.6-29.9,51.9c-6.2,10.8-12.1,21.8-17.8,32.9
		c-3.9,7.6-7.7,15.2-10.9,23.2c-1.3,3.4-3.4,7.4-2.7,11.1c1,5.8,4.3,10.9,9.4,13.9c1.8,1.1,4.9,2.7,6.8,0.8
		c2.3-2.4,1.6-9.5,2.5-12.8c3-10.9,6.9-21.6,11.4-32c14.8-34.2,32.8-68,54.1-98.7c4.8-6.9,9.6-13.9,15-20.4c1.9-2.3,6.5-5.8,6.9-8.8
		c0.5-3.4-4.6-6.5-7.2-7.4c-5-1.7-7.8,1.3-11.1,4.6c-6.2,6.2-11.9,12.8-18.1,19c-19.8,19.9-38.5,40.9-58.4,60.7
		c-5.4,5.4-10.8,10.9-16.7,15.7C449,124.7,446.8,127.1,443.6,127.5z"/>
	
		<linearGradient id="SVGID_00000068665192256095863190000002360918524498763942_" gradientUnits="userSpaceOnUse" x1="654.3508" y1="271.2565" x2="654.3508" y2="152.8336" gradientTransform="matrix(1 0 0 -1 0 358)">
		<stop  offset="6.703939e-02" style="stop-color:#BF3132"/>
		<stop  offset="0.1829" style="stop-color:#D36148"/>
		<stop  offset="0.3016" style="stop-color:#E68C60"/>
		<stop  offset="0.3932" style="stop-color:#F3A771"/>
		<stop  offset="0.4458" style="stop-color:#F8B178"/>
	</linearGradient>
	<path style="fill:url(#SVGID_00000068665192256095863190000002360918524498763942_);" d="M801.2,126c-5.8,4.3-25.8,25.4-31.7,23.2
		c-2.2-2.1-0.3-6.7,0.1-9.1c1.4-6.6,3.8-13.2,6.7-19.4c1-2.2,4.2-5.5,3.7-8.1c-7.7-20.7-43,24-51.1,30.3c3.3-6.5,6.7-12.8,11.2-18.6
		c1.6-2.1,5.8-5.4,6-8.1c0.4-5.7-8.8-7.7-12.3-5c-5.1,3.9-6.8,10.2-10.9,14.7c-6.9,7.9-51.8,45-54.4,21.8
		c16.1,0.4,50.4-34.4,33.1-48.1c-12.4-8.7-25.7,8.5-32.4,17c-3.6,6-5.7,8.8-13.2,9.1c-5.2,1.4-10.1,4.4-15.3,5.7
		c-2.5,0.6-2.6-3.9-3.5-5.4c-6.9-10.6-18,0.9-24.8,5.7c-21.3,14.4,16.9-37.9,23.8-35.5c3.8-0.1,4.9,7,8.1,5.5
		c4.7-2.2,1.3-9-1.3-11.3c-8.9-8.1-20.5-0.4-27.8,5.9c-9.7,8.1-16.6,18.9-22.7,29.8c-4,4.9-9.6,8.9-14.4,12.9
		c-5,3.6-9.7,9.1-15.7,10.8c-5.7-3.4,7.1-28.2,9.4-33.8c1.2-2.5,4.5-6.1,4.6-8.9c0.1-2.9-3.1-5.7-5.5-6.7
		c-5.9-2.6-11.9,7.8-15.1,11.6c-9.4,11-18.3,22.4-28.1,33.1c-2.4,2.7-6.7,9.8-10.5,10.4c-9.1-0.9,21.5-41.5,23.1-45.5
		c0.5-3.2-4.7-6.5-7.4-6.9c-5.5-0.8-9,6.3-11.6,10.1c-7.7,12.5-17.6,25.3-20.2,40c-0.3,6.8,4.8,14.3,12.5,12.3
		c7.7-3.2,13.2-10.6,19-16.3c5.5-6.1,10.9-12.5,16.5-18.6c-1,4.8-3.7,9.2-4.3,14.1c-1.1,8.2,5.8,17.5,14.8,14.8
		c12.6-3.7,21.2-15.2,31.5-22.5c6.3,19.6,26.4-1,35.1-7.3c4.6,15.2-46,30.3-57.4,55.7c-7.9,15,13.1,26.3,24.3,15.9
		c18.1-12.9,30.4-33.1,40.3-52.6c2.7-10,16.4-13.6,25.1-16.1c-1.7,5.8-5.4,10.7-6,17c-1.1,11,9,17.3,18.9,15.9
		c18.1-2.5,30.4-14.1,44.8-24c-1.7,7.2-5,12.8-0.4,19.8c1.3,1.9,4.9,5.6,7.5,4c8.4-17.2,23.4-34,39.2-45.2c-3.4,7.6-6.4,16-7.8,24.2
		c-2.8,11.8,8.7,19.9,18.7,12.9c9-5,17.1-12,24.6-18.9c2.6-2.4,9.3-6.7,9.6-10.5C807.9,122.6,803.5,123.9,801.2,126z M696.6,102.2
		c-2.9,13-12.2,29-25.4,33.5C675.6,123.6,685.7,109.1,696.6,102.2z M579.6,192c-3.9-7,19.7-24.2,24.9-28.7c3-2.4,6.2-5.4,9.7-7
		C609.9,163.6,588.1,195.6,579.6,192z"/>
</g>
</svg>
