<?xml version="1.0" encoding="utf-8"?>
<!-- Generator: Adobe Illustrator 26.3.1, SVG Export Plug-In . SVG Version: 6.00 Build 0)  -->
<svg version="1.1" id="Capa_1" xmlns="http://www.w3.org/2000/svg" xmlns:xlink="http://www.w3.org/1999/xlink" x="0px" y="0px"
	 viewBox="0 0 841.9 356.4" style="enable-background:new 0 0 841.9 356.4;" xml:space="preserve">
<style type="text/css">
	.st0{display:none;fill:#010202;}
	.st1{fill:url(#SVGID_1_);}
	.st2{fill:url(#SVGID_00000085945733655104500220000000526071075707277224_);}
	.st3{fill:url(#SVGID_00000103966484657509571310000003401881552165618079_);}
	.st4{fill:url(#SVGID_00000064320765221579760650000012938068883555869835_);}
	.st5{fill:url(#SVGID_00000047035962612745892830000007488031011593714091_);}
	.st6{clip-path:url(#SVGID_00000028323518471490025800000006022383515260913029_);}
	.st7{clip-path:url(#SVGID_00000138553121550254585070000013601680704645708433_);fill:#FAEBD1;}
	
		.st8{clip-path:url(#SVGID_00000031170487850012163750000012933692980141883015_);fill:url(#SVGID_00000057870171617292823830000000000400322150480827_);}
	
		.st9{clip-path:url(#SVGID_00000152265316992866930790000015502076695261397391_);fill:url(#SVGID_00000137823516614100009210000007747330475089546633_);}
	
		.st10{clip-path:url(#SVGID_00000026851610880320246010000007412941314579818905_);fill:url(#SVGID_00000036244931309211287870000009372165071647775664_);}
	.st11{clip-path:url(#SVGID_00000160184209096270410830000015150962899237434525_);fill:#FAEBD1;}
	.st12{display:none;}
	.st13{display:inline;}
	.st14{clip-path:url(#SVGID_00000113311267780585541700000000271783537598504098_);}
	.st15{clip-path:url(#SVGID_00000057131355921885709490000009163135814452123065_);fill:#FAEBD1;}
	
		.st16{clip-path:url(#SVGID_00000081609291729844169410000009449399710444076723_);fill:url(#SVGID_00000143610238104462156220000009975020747656011940_);}
	
		.st17{clip-path:url(#SVGID_00000001622028909408413400000000728781244267808695_);fill:url(#SVGID_00000085953142659124081850000011037893877635477146_);}
	
		.st18{clip-path:url(#SVGID_00000041995025196036092810000008324914221759009960_);fill:url(#SVGID_00000034071306320913803990000012920076205791827134_);}
	.st19{clip-path:url(#SVGID_00000108995754318895689210000006548154173317890176_);fill:#FAEBD1;}
	.st20{fill:url(#SVGID_00000052813223281783139340000000800475403807282358_);}
	.st21{display:none;fill:url(#SVGID_00000139253149478057505590000003865930373859435180_);}
	.st22{display:none;fill:url(#SVGID_00000144333598108946379660000000276497738083626685_);}
	.st23{display:none;fill:url(#SVGID_00000034790468979081176090000014044477564115468467_);}
	.st24{display:none;fill:url(#SVGID_00000168836728516707532200000008541145495995658423_);}
	.st25{display:none;fill:url(#SVGID_00000102538696987109067520000011324074120068995218_);}
	.st26{display:none;fill:url(#SVGID_00000081626973164870916700000006575204941199275160_);}
</style>
<rect y="226.9" class="st0" width="841.9" height="391.8"/>
<linearGradient id="SVGID_1_" gradientUnits="userSpaceOnUse" x1="146.1702" y1="23.4439" x2="146.1702" y2="153.5466">
	<stop  offset="6.703939e-02" style="stop-color:#BF3132"/>
	<stop  offset="0.1248" style="stop-color:#9C3337"/>
	<stop  offset="0.2369" style="stop-color:#63303A"/>
	<stop  offset="0.3316" style="stop-color:#3C2A38"/>
	<stop  offset="0.4041" style="stop-color:#262535"/>
	<stop  offset="0.4458" style="stop-color:#1E2233"/>
</linearGradient>
<path class="st1" d="M124.4,96.5C130,86,136.1,75.7,141.5,65c2.6-5.3,6.1-11.7,5.5-17.8c-1.5-14-16.3-16.4-27.4-14.4
	C98.1,36.7,74.7,45.9,56.5,58C50,62.3,40.3,68.4,39.7,77.1c-0.3,3.7,3.5,13.8,8.6,11.8c2.2-0.9,1.7-4.8,2.8-6.6
	c2.4-4,6.5-7.3,10.3-10c15.4-11.1,33.3-19.1,50.9-25.8c5.7-2.2,11.5-4.1,17.4-5.5c1.9-0.5,5.1-1.6,6.6,0.2c1.6,1.9,0,5.2-0.8,7.1
	c-2.6,6.4-6,12.6-9.5,18.6c-9.4,16.3-19.5,32.2-28.9,48.5c-3.8,6.6-10.3,15.5-10.3,23.4c0,4.8,2.6,9.8,6.5,12.6
	c1.4,1,4.1,2.7,5.9,1.5c1.7-1.1,2.5-6.9,3.6-8.9c3.8-7.4,8.5-14.2,13.1-21c11.9-17.6,25.2-34,38.4-50.5c7-8.7,14.8-20.2,23.9-26.7
	c-7.9,11.9-14.6,25.1-20.7,38c-3.7,7.8-7.9,15.8-10,24.3c-1.7,6.8,0,13.2,5.7,17.6c1.7,1.3,4.5,3,6.8,2.2c2.1-0.7,2.4-5.4,3.3-7.3
	c3.4-6.4,7.8-12.1,12.2-17.8c15.2-19.5,32.8-38.5,52-54.2c-6.3,13.3-16.2,25.5-23.6,38.4c-4.6,8-9,16.1-13.3,24.3
	c-3.9,7.4-11.2,18.8-8.7,27.5c1.2,4.3,4.4,8,8.4,10.1c1.4,0.7,4.1,1.5,5.4,0.2c1.4-1.5,0.9-5.8,1.4-7.8c1.7-6.9,3.7-13.6,6.3-20.2
	c8.4-21.1,19.5-41.3,32-60.2c4.1-6.2,8.6-12.1,13.4-17.8c1.4-1.7,4.7-4,3.7-6.5c-5.3-12.8-21.4-0.6-27.4,4.3
	c-21.9,17.7-39.8,39.3-58.2,60.4c4.2-18.3,14.7-37,24.9-52.6c3.1-4.8,6.6-9.4,10.3-13.7c1.2-1.4,4.1-3.6,3.8-5.7
	c-0.3-2-2.6-3.6-4.2-4.5c-8-4.8-15.9,3.5-21.4,8.5c-13.7,12.4-26,26.6-37.8,40.9C136.6,81.4,131.2,90.5,124.4,96.5z"/>
<linearGradient id="SVGID_00000134935462768402926280000018024868176047349685_" gradientUnits="userSpaceOnUse" x1="248.9425" y1="88.4952" x2="248.9425" y2="164.5009">
	<stop  offset="6.703939e-02" style="stop-color:#BF3132"/>
	<stop  offset="0.1248" style="stop-color:#9C3337"/>
	<stop  offset="0.2369" style="stop-color:#63303A"/>
	<stop  offset="0.3316" style="stop-color:#3C2A38"/>
	<stop  offset="0.4041" style="stop-color:#262535"/>
	<stop  offset="0.4458" style="stop-color:#1E2233"/>
</linearGradient>
<path style="fill:url(#SVGID_00000134935462768402926280000018024868176047349685_);" d="M286.2,127.7c-2.7-1.9-8.1,4.8-9.9,6.5
	c-5.8,5.1-11.7,10.2-18,14.9c-2.9,2.2-6.3,5.1-10,5.5c0-7.8,5.3-15.9,8.2-23c2.7-6.3,2.7-12.1-4.1-15.7c-2.5-1.3-5.3-2.2-7.9-3.1
	c2-4,5.3-7.3,7.4-11.3c4.5-8.8,0.2-14.2-9.5-12.7c-8.1,1.3-15.8,7-20.5,13.5c-5.7,8,1,13.5,9.2,14.2c-2.5,3.6-6.1,6.5-9.2,9.6
	l-5.4,5.4c-1.7,1.7-5.6,4.3-6.3,6.7c-1.4,4.6,5.5,2.6,7.2,1.4c5.6-4.2,10.5-9.4,15.5-14.3c2-2,3.9-5,6.3-6.4
	c2.1-1.3,5.9,0.2,7.4,1.9c2.2,2.6-2.1,7.7-3.5,9.9c-5.3,8.8-16.3,22.1-5.6,31.2c1.8,1.6,4.3,2.6,6.7,2.6c4.9,0,10-3.5,13.8-6.2
	c7.9-5.6,14.9-11.9,22.1-18.3C282.6,137.8,291.5,131.4,286.2,127.7z M238.2,108.9c-1.3,1.3-3.5,4.1-5.4,2.2c-2.1-2-0.3-4.8,1.3-6.4
	c3.1-3.5,7.8-8,12.7-8.5C246.1,101,241.5,105.6,238.2,108.9z"/>
<linearGradient id="SVGID_00000050654510339229017450000015020749545427502482_" gradientUnits="userSpaceOnUse" x1="287.8621" y1="147.9659" x2="287.8621" y2="167.0818">
	<stop  offset="6.703939e-02" style="stop-color:#BF3132"/>
	<stop  offset="0.1248" style="stop-color:#9C3337"/>
	<stop  offset="0.2369" style="stop-color:#63303A"/>
	<stop  offset="0.3316" style="stop-color:#3C2A38"/>
	<stop  offset="0.4041" style="stop-color:#262535"/>
	<stop  offset="0.4458" style="stop-color:#1E2233"/>
</linearGradient>
<path style="fill:url(#SVGID_00000050654510339229017450000015020749545427502482_);" d="M285.3,148.3c-3.5,1.5-8,9.5-7.2,13.4
	c1,5,7.4,6.4,11.4,4.7c3.2-1.4,8.4-4.8,8.3-8.8C297.6,153.1,289.7,146.4,285.3,148.3z"/>
<linearGradient id="SVGID_00000153668786369366310090000002422024387975264660_" gradientUnits="userSpaceOnUse" x1="462.3051" y1="23.0665" x2="462.3051" y2="204.5261">
	<stop  offset="6.703939e-02" style="stop-color:#BF3132"/>
	<stop  offset="0.1248" style="stop-color:#9C3337"/>
	<stop  offset="0.2369" style="stop-color:#63303A"/>
	<stop  offset="0.3316" style="stop-color:#3C2A38"/>
	<stop  offset="0.4041" style="stop-color:#262535"/>
	<stop  offset="0.4458" style="stop-color:#1E2233"/>
</linearGradient>
<path style="fill:url(#SVGID_00000153668786369366310090000002422024387975264660_);" d="M443.6,128.3c0.6-6,5.8-12.1,8.9-17.1
	c8-13.5,17.2-26.2,24.9-39.9c4.1-7.4,10.2-17.3,6.5-26c-6-13.8-18.7-14.2-31.4-12c-23.8,4-49.2,14.9-69.5,27.6
	c-8.8,5.5-24.2,15.1-20.7,27.5c0.9,3.3,4.9,11,9.5,9c2.1-0.9,2.4-6.1,3.6-8.1c3-4.6,7.8-8.1,12.2-11.3c17.4-12.5,37.4-20.5,57-28.7
	c6.5-2.7,13.5-5.2,20.4-6.6c2.2-0.4,5.8-1.5,7.7,0.1c2.1,1.7,0.3,5.1-0.5,7.1c-2.6,6-6.7,11.4-10.5,16.7
	c-8.1,11.3-16.7,22.5-24,34.3c-3.4,5.5-7.3,11.2-8.9,17.6c-2.7,10.6,4.4,23.1,16.7,20c8.9-2.2,16.6-10.6,23.2-16.4
	c7.4-6.5,14-13.7,20.9-20.7c10-10.1,18.7-21.5,28.7-31.5c-9.3,17.6-20,34.6-29.9,51.9c-6.2,10.8-12.1,21.8-17.8,32.9
	c-3.9,7.6-7.7,15.2-10.9,23.2c-1.3,3.4-3.4,7.4-2.7,11.1c1,5.8,4.3,10.9,9.4,13.9c1.8,1.1,4.9,2.7,6.8,0.8c2.3-2.4,1.6-9.5,2.5-12.8
	c3-10.9,6.9-21.6,11.4-32c14.8-34.2,32.8-68,54.1-98.7c4.8-6.9,9.6-13.9,15-20.4c1.9-2.3,6.5-5.8,6.9-8.8c0.5-3.4-4.6-6.5-7.2-7.4
	c-5-1.7-7.8,1.3-11.1,4.6c-6.2,6.2-11.9,12.8-18.1,19C506.7,67,488,88,468.1,107.9c-5.4,5.4-10.8,10.9-16.7,15.7
	C449,125.5,446.8,127.9,443.6,128.3z"/>
<linearGradient id="SVGID_00000156568041385415223690000001292629487721022397_" gradientUnits="userSpaceOnUse" x1="608.8914" y1="161.2247" x2="608.8914" y2="161.6284">
	<stop  offset="6.703939e-02" style="stop-color:#BF3132"/>
	<stop  offset="0.1248" style="stop-color:#9C3337"/>
	<stop  offset="0.2369" style="stop-color:#63303A"/>
	<stop  offset="0.3316" style="stop-color:#3C2A38"/>
	<stop  offset="0.4041" style="stop-color:#262535"/>
	<stop  offset="0.4458" style="stop-color:#1E2233"/>
</linearGradient>
<path style="fill:url(#SVGID_00000156568041385415223690000001292629487721022397_);" d="M608.7,161.2l0.4,0.4L608.7,161.2z"/>
<g>
	<g>
		<defs>
			<rect id="SVGID_00000077322615429658199310000000178038094507157120_" x="268.9" y="152.5" width="193.4" height="193.4"/>
		</defs>
		<clipPath id="SVGID_00000159455145406659810320000015438804398083231616_">
			<use xlink:href="#SVGID_00000077322615429658199310000000178038094507157120_"  style="overflow:visible;"/>
		</clipPath>
		<g style="clip-path:url(#SVGID_00000159455145406659810320000015438804398083231616_);">
			<defs>
				<rect id="SVGID_00000150065798200763767610000013063641210406368660_" x="268.9" y="152.5" width="193.4" height="193.4"/>
			</defs>
			<clipPath id="SVGID_00000176031570730159371760000010272782291360990108_">
				<use xlink:href="#SVGID_00000150065798200763767610000013063641210406368660_"  style="overflow:visible;"/>
			</clipPath>
			<path style="clip-path:url(#SVGID_00000176031570730159371760000010272782291360990108_);fill:#FAEBD1;" d="M454.1,248.5
				c0,49.2-39.9,89.1-89.1,89.1s-89.1-39.9-89.1-89.1s39.9-89.1,89.1-89.1S454.1,199.3,454.1,248.5"/>
		</g>
		<g style="clip-path:url(#SVGID_00000159455145406659810320000015438804398083231616_);">
			<defs>
				<path id="SVGID_00000057869126263708230870000011100191033333390246_" d="M362.6,212.4c-4.3,6.7-11.5,16.7-16.6,23.7
					c-4.1,5.7-8,11.5-11.6,17.5l-11,18.1c0.1,0.2,16.4,19.5,44.4,26.5c43.6,10.9,64-18.6,78.2-41.2c12.1-19.2,2.9-41.3,2.9-41.3
					s-41.3-7.6-66.9-7.6C372.2,208.2,364.6,209.3,362.6,212.4"/>
			</defs>
			<clipPath id="SVGID_00000130624740823651504900000003066730691476260999_">
				<use xlink:href="#SVGID_00000057869126263708230870000011100191033333390246_"  style="overflow:visible;"/>
			</clipPath>
			
				<linearGradient id="SVGID_00000111149692604642292880000015480331730750463374_" gradientUnits="userSpaceOnUse" x1="5.365380e-02" y1="-258.8568" x2="1.0991" y2="-258.8568" gradientTransform="matrix(128.904 0 0 -128.904 316.5673 -33108.9961)">
				<stop  offset="0" style="stop-color:#FFDEA5"/>
				<stop  offset="5.327790e-09" style="stop-color:#FFDEA5"/>
				<stop  offset="8.424558e-02" style="stop-color:#FCCB8F"/>
				<stop  offset="0.3804" style="stop-color:#F08048"/>
				<stop  offset="0.7229" style="stop-color:#E73330"/>
				<stop  offset="0.9106" style="stop-color:#E73531"/>
				<stop  offset="1" style="stop-color:#E73531"/>
			</linearGradient>
			
				<rect x="323.5" y="208.2" style="clip-path:url(#SVGID_00000130624740823651504900000003066730691476260999_);fill:url(#SVGID_00000111149692604642292880000015480331730750463374_);" width="134.8" height="101"/>
		</g>
		<g style="clip-path:url(#SVGID_00000159455145406659810320000015438804398083231616_);">
			<defs>
				<path id="SVGID_00000079487522387567787940000013754656363734785954_" d="M276.4,267.2c9.9,50.2,57.1,77.6,105,70.8
					c47.9-6.8,91-67.6,68-121.5c-18.2-42.6-34.9-25.4-30-5.3c0.9,3.5,22.1-1.9,30.2,7.3c3.3,3.7,0.4,18.8-0.9,24.6
					c-0.3,1.4-0.6,2.8-0.8,4.2c-1.5,9.2-10.3,50-53.2,67.3c-20.9,8.4-50.4,1.6-66-12.7c-22.4-20.5-26.3-41.3-26.4-59.9
					c0-34.5,36.7-54.7,36.7-54.7S266.5,217,276.4,267.2"/>
			</defs>
			<clipPath id="SVGID_00000093144286070779587410000011208633806816057012_">
				<use xlink:href="#SVGID_00000079487522387567787940000013754656363734785954_"  style="overflow:visible;"/>
			</clipPath>
			
				<linearGradient id="SVGID_00000022544025740494585200000012341502932218348476_" gradientUnits="userSpaceOnUse" x1="-1.148950e-02" y1="-258.501" x2="1.1307" y2="-258.501" gradientTransform="matrix(180.2868 0 0 -180.2868 268.5619 -46344.9609)">
				<stop  offset="0" style="stop-color:#1D1F35"/>
				<stop  offset="0.1065" style="stop-color:#2D2838"/>
				<stop  offset="0.2387" style="stop-color:#3F333C"/>
				<stop  offset="0.3089" style="stop-color:#46383D"/>
				<stop  offset="0.3567" style="stop-color:#4C393E"/>
				<stop  offset="0.4265" style="stop-color:#5E3D3F"/>
				<stop  offset="0.5099" style="stop-color:#7C403E"/>
				<stop  offset="0.6028" style="stop-color:#A83D38"/>
				<stop  offset="0.6799" style="stop-color:#D5302F"/>
				<stop  offset="0.7552" style="stop-color:#DE3330"/>
				<stop  offset="0.8525" style="stop-color:#E73531"/>
				<stop  offset="1" style="stop-color:#E73531"/>
			</linearGradient>
			
				<rect x="266.5" y="173.9" style="clip-path:url(#SVGID_00000093144286070779587410000011208633806816057012_);fill:url(#SVGID_00000022544025740494585200000012341502932218348476_);" width="205.9" height="170.9"/>
		</g>
		<g style="clip-path:url(#SVGID_00000159455145406659810320000015438804398083231616_);">
			<defs>
				<path id="SVGID_00000067943777103756706320000014349807916290350995_" d="M359.6,244.2c12.8,38.5,51.6,35.3,69.2,21.6
					c15.3-11.9,26.9-34,20.5-50c-9.4-23.7-26.5-37.3-41.2-45.3c-15.4-8.4-28.1-9.9-28.1-9.9S344.1,197.5,359.6,244.2"/>
			</defs>
			<clipPath id="SVGID_00000118358311286909883840000006382557018366780587_">
				<use xlink:href="#SVGID_00000067943777103756706320000014349807916290350995_"  style="overflow:visible;"/>
			</clipPath>
			
				<linearGradient id="SVGID_00000165924715876154571850000011338632486418216345_" gradientUnits="userSpaceOnUse" x1="0.388" y1="-259.069" x2="1.9327" y2="-259.069" gradientTransform="matrix(89.3137 33.8 33.8 -89.3137 9052.8154 -22955.9512)">
				<stop  offset="0" style="stop-color:#BBC5C2"/>
				<stop  offset="1.823710e-02" style="stop-color:#BBC5C2"/>
				<stop  offset="0.521" style="stop-color:#5B6872"/>
				<stop  offset="0.6202" style="stop-color:#4D5965"/>
				<stop  offset="0.8166" style="stop-color:#303646"/>
				<stop  offset="0.9385" style="stop-color:#1F2333"/>
				<stop  offset="1" style="stop-color:#1F2333"/>
			</linearGradient>
			
				<polygon style="clip-path:url(#SVGID_00000118358311286909883840000006382557018366780587_);fill:url(#SVGID_00000165924715876154571850000011338632486418216345_);" points="
				358.1,123.8 496.1,176 441.7,319.6 303.8,267.4 			"/>
		</g>
		<g style="clip-path:url(#SVGID_00000159455145406659810320000015438804398083231616_);">
			<defs>
				<rect id="SVGID_00000165203356652141067710000012422164887030938262_" x="268.9" y="152.5" width="193.4" height="193.4"/>
			</defs>
			<clipPath id="SVGID_00000090986313211467523360000003622236325923231158_">
				<use xlink:href="#SVGID_00000165203356652141067710000012422164887030938262_"  style="overflow:visible;"/>
			</clipPath>
			<path style="clip-path:url(#SVGID_00000090986313211467523360000003622236325923231158_);fill:#FAEBD1;" d="M386.2,219.1
				c0.7,15.5,26.3,10.9,27.2,27.8c0.6,10.4-9.9,17.1-19.4,15.1c-7.8-1.6-14.1-8.4-16.4-15.8l-0.4,0c1.5,9.2,8.9,17.8,18,20.1
				c13.8,3.4,25-8,22.9-21.7c-2.4-15.1-18.4-12.3-27.7-19.3C388.2,223.6,387.3,221.5,386.2,219.1"/>
			<path style="clip-path:url(#SVGID_00000090986313211467523360000003622236325923231158_);fill:#FAEBD1;" d="M398.1,236.9
				c-9.6,2.4-5.3,16.8,4.1,14.6C411.8,249.2,407.4,234.6,398.1,236.9"/>
			<path style="clip-path:url(#SVGID_00000090986313211467523360000003622236325923231158_);fill:#FAEBD1;" d="M390,216
				c-2.5,1.5-0.4,5.2,2.1,3.9C394.8,218.6,392.7,214.4,390,216"/>
		</g>
	</g>
</g>
<g class="st12">
	<g class="st13">
		<defs>
			<rect id="SVGID_00000019641319483035258840000014053408576188062102_" x="258" y="396.1" width="193.4" height="193.4"/>
		</defs>
		<clipPath id="SVGID_00000124135985918966426370000014903670426272460948_">
			<use xlink:href="#SVGID_00000019641319483035258840000014053408576188062102_"  style="overflow:visible;"/>
		</clipPath>
		<g style="clip-path:url(#SVGID_00000124135985918966426370000014903670426272460948_);">
			<defs>
				<rect id="SVGID_00000160905066495351566200000009824805501549821873_" x="258" y="396.1" width="193.4" height="193.4"/>
			</defs>
			<clipPath id="SVGID_00000079453792993754368490000014511743024029307068_">
				<use xlink:href="#SVGID_00000160905066495351566200000009824805501549821873_"  style="overflow:visible;"/>
			</clipPath>
			<path style="clip-path:url(#SVGID_00000079453792993754368490000014511743024029307068_);fill:#FAEBD1;" d="M443.2,492.1
				c0,49.2-39.9,89.1-89.1,89.1S265,541.3,265,492.1c0-49.2,39.9-89.1,89.1-89.1S443.2,442.9,443.2,492.1"/>
		</g>
		<g style="clip-path:url(#SVGID_00000124135985918966426370000014903670426272460948_);">
			<defs>
				<path id="SVGID_00000140001902055846398860000005775802301174674839_" d="M351.7,456c-4.3,6.7-11.5,16.7-16.6,23.7
					c-4.1,5.7-8,11.5-11.6,17.5l-11,18.1c0.1,0.2,16.4,19.5,44.4,26.5c43.6,10.9,64-18.6,78.2-41.2c12.1-19.2,2.9-41.3,2.9-41.3
					s-41.3-7.6-66.9-7.6C361.3,451.7,353.7,452.9,351.7,456"/>
			</defs>
			<clipPath id="SVGID_00000026844264309899494180000002890342567644993162_">
				<use xlink:href="#SVGID_00000140001902055846398860000005775802301174674839_"  style="overflow:visible;"/>
			</clipPath>
			
				<linearGradient id="SVGID_00000106128351280626437410000008792837335289453450_" gradientUnits="userSpaceOnUse" x1="1.130436e-06" y1="-257.7993" x2="1.0455" y2="-257.7993" gradientTransform="matrix(128.904 0 0 -128.904 312.5673 -32729.082)">
				<stop  offset="0" style="stop-color:#FFDEA5"/>
				<stop  offset="5.327790e-09" style="stop-color:#FFDEA5"/>
				<stop  offset="8.424558e-02" style="stop-color:#FCCB8F"/>
				<stop  offset="0.3804" style="stop-color:#F08048"/>
				<stop  offset="0.7229" style="stop-color:#E73330"/>
				<stop  offset="0.9106" style="stop-color:#E73531"/>
				<stop  offset="1" style="stop-color:#E73531"/>
			</linearGradient>
			
				<rect x="312.6" y="451.7" style="clip-path:url(#SVGID_00000026844264309899494180000002890342567644993162_);fill:url(#SVGID_00000106128351280626437410000008792837335289453450_);" width="134.8" height="101"/>
		</g>
		<g style="clip-path:url(#SVGID_00000124135985918966426370000014903670426272460948_);">
			<defs>
				<path id="SVGID_00000067221707945112698170000003763513602518833067_" d="M265.5,510.8c9.9,50.2,57.1,77.6,105,70.8
					c47.9-6.8,91-67.6,68-121.5c-18.2-42.6-34.9-25.4-30-5.3c0.9,3.5,22.1-1.9,30.2,7.3c3.3,3.7,0.4,18.8-0.9,24.6
					c-0.3,1.4-0.6,2.8-0.8,4.2c-1.5,9.2-10.3,50-53.2,67.3c-20.9,8.4-50.4,1.6-66-12.7c-22.4-20.5-26.3-41.3-26.4-59.9
					c0-34.5,36.7-54.7,36.7-54.7S255.6,460.6,265.5,510.8"/>
			</defs>
			<clipPath id="SVGID_00000090281034881715570550000016427112969999053749_">
				<use xlink:href="#SVGID_00000067221707945112698170000003763513602518833067_"  style="overflow:visible;"/>
			</clipPath>
			
				<linearGradient id="SVGID_00000171694239296319808070000014356646284091167362_" gradientUnits="userSpaceOnUse" x1="-4.985083e-02" y1="-257.7449" x2="1.0923" y2="-257.7449" gradientTransform="matrix(180.2868 0 0 -180.2868 264.5619 -45965.043)">
				<stop  offset="0" style="stop-color:#1D1F35"/>
				<stop  offset="0.1065" style="stop-color:#2D2838"/>
				<stop  offset="0.2387" style="stop-color:#3F333C"/>
				<stop  offset="0.3089" style="stop-color:#46383D"/>
				<stop  offset="0.3567" style="stop-color:#4C393E"/>
				<stop  offset="0.4265" style="stop-color:#5E3D3F"/>
				<stop  offset="0.5099" style="stop-color:#7C403E"/>
				<stop  offset="0.6028" style="stop-color:#A83D38"/>
				<stop  offset="0.6799" style="stop-color:#D5302F"/>
				<stop  offset="0.7552" style="stop-color:#DE3330"/>
				<stop  offset="0.8525" style="stop-color:#E73531"/>
				<stop  offset="1" style="stop-color:#E73531"/>
			</linearGradient>
			
				<rect x="255.6" y="417.5" style="clip-path:url(#SVGID_00000090281034881715570550000016427112969999053749_);fill:url(#SVGID_00000171694239296319808070000014356646284091167362_);" width="205.9" height="170.9"/>
		</g>
		<g style="clip-path:url(#SVGID_00000124135985918966426370000014903670426272460948_);">
			<defs>
				<path id="SVGID_00000114066390917056827200000002464028698552568998_" d="M348.7,487.8c12.8,38.5,51.6,35.3,69.2,21.6
					c15.3-11.9,26.9-34,20.5-50c-9.4-23.7-26.5-37.3-41.2-45.3c-15.4-8.4-28.1-9.9-28.1-9.9S333.2,441.1,348.7,487.8"/>
			</defs>
			<clipPath id="SVGID_00000013174685575101323920000001481494723577536411_">
				<use xlink:href="#SVGID_00000114066390917056827200000002464028698552568998_"  style="overflow:visible;"/>
			</clipPath>
			
				<linearGradient id="SVGID_00000167388422650905768450000015646986360343935156_" gradientUnits="userSpaceOnUse" x1="-0.185" y1="-257.7595" x2="1.3597" y2="-257.7595" gradientTransform="matrix(89.3137 33.8 33.8 -89.3137 9048.8154 -22576.0352)">
				<stop  offset="0" style="stop-color:#BBC5C2"/>
				<stop  offset="1.823710e-02" style="stop-color:#BBC5C2"/>
				<stop  offset="0.521" style="stop-color:#5B6872"/>
				<stop  offset="0.6202" style="stop-color:#4D5965"/>
				<stop  offset="0.8166" style="stop-color:#303646"/>
				<stop  offset="0.9385" style="stop-color:#1F2333"/>
				<stop  offset="1" style="stop-color:#1F2333"/>
			</linearGradient>
			
				<polygon style="clip-path:url(#SVGID_00000013174685575101323920000001481494723577536411_);fill:url(#SVGID_00000167388422650905768450000015646986360343935156_);" points="
				347.2,367.4 485.2,419.6 430.8,563.2 292.8,511 			"/>
		</g>
		<g style="clip-path:url(#SVGID_00000124135985918966426370000014903670426272460948_);">
			<defs>
				<rect id="SVGID_00000105412507063410901150000006788971679535774646_" x="258" y="396.1" width="193.4" height="193.4"/>
			</defs>
			<clipPath id="SVGID_00000159458726479954378410000005022126719455539077_">
				<use xlink:href="#SVGID_00000105412507063410901150000006788971679535774646_"  style="overflow:visible;"/>
			</clipPath>
			<path style="clip-path:url(#SVGID_00000159458726479954378410000005022126719455539077_);fill:#FAEBD1;" d="M375.2,462.7
				c0.7,15.5,26.3,10.9,27.2,27.8c0.6,10.4-9.9,17.1-19.4,15.1c-7.8-1.6-14.1-8.4-16.4-15.8l-0.4,0c1.5,9.2,8.9,17.8,18,20.1
				c13.8,3.4,25-8,22.9-21.7c-2.4-15.1-18.4-12.3-27.7-19.3C377.3,467.2,376.4,465.1,375.2,462.7"/>
			<path style="clip-path:url(#SVGID_00000159458726479954378410000005022126719455539077_);fill:#FAEBD1;" d="M387.2,480.5
				c-9.6,2.4-5.3,16.8,4.1,14.6C400.9,492.8,396.5,478.1,387.2,480.5"/>
			<path style="clip-path:url(#SVGID_00000159458726479954378410000005022126719455539077_);fill:#FAEBD1;" d="M379,459.6
				c-2.5,1.5-0.4,5.2,2.1,3.9C383.9,462.2,381.8,458,379,459.6"/>
		</g>
	</g>
</g>
<linearGradient id="SVGID_00000049935488631558272850000017055272577769885087_" gradientUnits="userSpaceOnUse" x1="654.2737" y1="87.516" x2="654.2737" y2="205.9197">
	<stop  offset="6.703939e-02" style="stop-color:#BF3132"/>
	<stop  offset="0.1248" style="stop-color:#9C3337"/>
	<stop  offset="0.2369" style="stop-color:#63303A"/>
	<stop  offset="0.3316" style="stop-color:#3C2A38"/>
	<stop  offset="0.4041" style="stop-color:#262535"/>
	<stop  offset="0.4458" style="stop-color:#1E2233"/>
</linearGradient>
<path style="fill:url(#SVGID_00000049935488631558272850000017055272577769885087_);" d="M801.2,126.8c-5.8,4.3-25.8,25.4-31.7,23.2
	c-2.2-2.1-0.3-6.7,0.1-9.1c1.4-6.6,3.8-13.2,6.7-19.4c1-2.2,4.2-5.5,3.7-8.1c-7.7-20.7-43,24-51.1,30.3c3.3-6.5,6.7-12.8,11.2-18.6
	c1.6-2.1,5.8-5.4,6-8.1c0.4-5.7-8.8-7.7-12.3-5c-5.1,3.9-6.8,10.2-10.9,14.7c-6.9,7.9-51.8,45-54.4,21.8
	c16.1,0.4,50.4-34.4,33.1-48.1c-12.4-8.7-25.7,8.5-32.4,17c-3.6,6-5.7,8.8-13.2,9.1c-5.2,1.4-10.1,4.4-15.3,5.7
	c-2.5,0.6-2.6-3.9-3.5-5.4c-6.9-10.6-18,0.9-24.8,5.7c-21.3,14.4,16.9-37.9,23.8-35.5c3.8-0.1,4.9,7,8.1,5.5c4.7-2.2,1.3-9-1.3-11.3
	c-8.9-8.1-20.5-0.4-27.8,5.9c-9.7,8.1-16.6,18.9-22.7,29.8c-4,4.9-9.6,8.9-14.4,12.9c-5,3.6-9.7,9.1-15.7,10.8
	c-5.7-3.4,7.1-28.2,9.4-33.8c1.2-2.5,4.5-6.1,4.6-8.9c0.1-2.9-3.1-5.7-5.5-6.7c-5.9-2.6-11.9,7.8-15.1,11.6
	c-9.4,11-18.3,22.4-28.1,33.1c-2.4,2.7-6.7,9.8-10.5,10.4c-9.1-0.9,21.5-41.5,23.1-45.5c0.5-3.2-4.7-6.5-7.4-6.9
	c-5.5-0.8-9,6.3-11.6,10.1c-7.7,12.5-17.6,25.3-20.2,40c-0.3,6.8,4.8,14.3,12.5,12.3c7.7-3.2,13.2-10.6,19-16.3
	c5.5-6.1,10.9-12.5,16.5-18.6c-1,4.8-3.7,9.2-4.3,14.1c-1.1,8.2,5.8,17.5,14.8,14.8c12.6-3.7,21.2-15.2,31.5-22.5
	c6.3,19.6,26.4-1,35.1-7.3c4.6,15.2-46,30.3-57.4,55.7c-7.9,15,13.1,26.3,24.3,15.9c18.1-12.9,30.4-33.1,40.3-52.6
	c2.7-10,16.4-13.6,25.1-16.1c-1.7,5.8-5.4,10.7-6,17c-1.1,11,9,17.3,18.9,15.9c18.1-2.5,30.4-14.1,44.8-24c-1.7,7.2-5,12.8-0.4,19.8
	c1.3,1.9,4.9,5.6,7.5,4c8.4-17.2,23.4-34,39.2-45.2c-3.4,7.6-6.4,16-7.8,24.2c-2.8,11.8,8.7,19.9,18.7,12.9c9-5,17.1-12,24.6-18.9
	c2.6-2.4,9.3-6.7,9.6-10.5C807.9,123.4,803.5,124.7,801.2,126.8z M696.6,103c-2.9,13-12.2,29-25.4,33.5
	C675.7,124.4,685.7,109.9,696.6,103z M579.6,192.8c-3.9-7,19.7-24.2,24.9-28.7c3-2.4,6.2-5.4,9.7-7
	C609.9,164.4,588.1,196.4,579.6,192.8z"/>
<linearGradient id="SVGID_00000155118392019354765300000011676364741813814426_" gradientUnits="userSpaceOnUse" x1="139.2541" y1="251.2469" x2="139.2541" y2="381.3496">
	<stop  offset="6.703939e-02" style="stop-color:#BF3132"/>
	<stop  offset="0.1829" style="stop-color:#D36148"/>
	<stop  offset="0.3016" style="stop-color:#E68C60"/>
	<stop  offset="0.3932" style="stop-color:#F3A771"/>
	<stop  offset="0.4458" style="stop-color:#F8B178"/>
</linearGradient>
<path style="display:none;fill:url(#SVGID_00000155118392019354765300000011676364741813814426_);" d="M117.5,324.3
	c5.6-10.6,11.7-20.8,17.1-31.5c2.6-5.3,6.1-11.7,5.5-17.8c-1.5-14-16.3-16.4-27.4-14.4c-21.5,3.9-44.9,13.1-63.1,25.2
	c-6.5,4.3-16.2,10.4-16.8,19.1c-0.3,3.7,3.5,13.8,8.6,11.8c2.2-0.9,1.7-4.8,2.8-6.6c2.4-4,6.5-7.3,10.3-10
	c15.4-11.1,33.3-19.1,50.9-25.8c5.7-2.2,11.5-4.1,17.4-5.5c1.9-0.5,5.1-1.6,6.6,0.2c1.6,1.9,0,5.2-0.8,7.1c-2.6,6.4-6,12.6-9.5,18.6
	c-9.4,16.3-19.5,32.2-28.9,48.5c-3.8,6.6-10.3,15.5-10.3,23.4c0,4.8,2.6,9.8,6.5,12.6c1.4,1,4.1,2.7,5.9,1.5
	c1.7-1.1,2.5-6.9,3.6-8.9c3.8-7.4,8.5-14.2,13.1-21c11.9-17.6,25.2-34,38.4-50.5c7-8.7,14.8-20.2,23.9-26.7
	c-7.9,11.9-14.6,25.1-20.7,38c-3.7,7.8-7.9,15.8-10,24.3c-1.7,6.8,0,13.2,5.7,17.6c1.7,1.3,4.5,3,6.8,2.2c2.1-0.7,2.4-5.4,3.3-7.3
	c3.4-6.4,7.8-12.1,12.2-17.8c15.2-19.5,32.8-38.5,52-54.2c-6.3,13.3-16.2,25.5-23.6,38.4c-4.6,8-9,16.1-13.3,24.3
	c-3.9,7.4-11.2,18.8-8.7,27.5c1.2,4.3,4.4,8,8.4,10.1c1.4,0.7,4.1,1.5,5.4,0.2c1.4-1.5,0.9-5.8,1.4-7.8c1.7-6.9,3.7-13.6,6.3-20.2
	c8.4-21.1,19.5-41.3,32-60.2c4.1-6.2,8.6-12.1,13.4-17.8c1.4-1.7,4.7-4,3.7-6.5c-5.3-12.8-21.4-0.6-27.4,4.3
	c-21.9,17.7-39.8,39.3-58.2,60.4c4.2-18.3,14.7-37,24.9-52.6c3.1-4.8,6.6-9.4,10.3-13.7c1.2-1.4,4.1-3.6,3.8-5.7
	c-0.3-2-2.6-3.6-4.2-4.5c-8-4.8-15.9,3.5-21.4,8.5c-13.7,12.4-26,26.6-37.8,40.9C129.7,309.2,124.3,318.3,117.5,324.3z"/>
<linearGradient id="SVGID_00000016767177150334617250000005944788520987331735_" gradientUnits="userSpaceOnUse" x1="242.0264" y1="316.2982" x2="242.0264" y2="392.3039">
	<stop  offset="6.703939e-02" style="stop-color:#BF3132"/>
	<stop  offset="0.1829" style="stop-color:#D36148"/>
	<stop  offset="0.3016" style="stop-color:#E68C60"/>
	<stop  offset="0.3932" style="stop-color:#F3A771"/>
	<stop  offset="0.4458" style="stop-color:#F8B178"/>
</linearGradient>
<path style="display:none;fill:url(#SVGID_00000016767177150334617250000005944788520987331735_);" d="M279.3,355.5
	c-2.7-1.9-8.1,4.8-9.9,6.5c-5.8,5.1-11.7,10.2-18,14.9c-2.9,2.2-6.3,5.1-10,5.5c0-7.8,5.3-15.9,8.2-23c2.7-6.3,2.7-12.1-4.1-15.7
	c-2.5-1.3-5.3-2.2-7.9-3.1c2-4,5.3-7.3,7.4-11.3c4.5-8.8,0.2-14.2-9.5-12.7c-8.1,1.3-15.8,7-20.5,13.5c-5.7,8,1,13.5,9.2,14.2
	c-2.5,3.6-6.1,6.5-9.2,9.6l-5.4,5.4c-1.7,1.7-5.6,4.3-6.3,6.7c-1.4,4.6,5.5,2.6,7.2,1.4c5.6-4.2,10.5-9.4,15.5-14.3
	c2-2,3.9-5,6.3-6.4c2.1-1.3,5.9,0.2,7.4,1.9c2.2,2.6-2.1,7.7-3.5,9.9c-5.3,8.8-16.3,22.1-5.6,31.2c1.8,1.6,4.3,2.6,6.7,2.6
	c4.9,0,10-3.5,13.8-6.2c7.9-5.6,14.9-11.9,22.1-18.3C275.7,365.6,284.6,359.2,279.3,355.5z M231.3,336.7c-1.3,1.3-3.5,4.1-5.4,2.2
	c-2.1-2-0.3-4.8,1.3-6.4c3.1-3.5,7.8-8,12.7-8.5C239.2,328.8,234.6,333.4,231.3,336.7z"/>
<linearGradient id="SVGID_00000106144544602306992210000008728628198657217188_" gradientUnits="userSpaceOnUse" x1="280.946" y1="375.7689" x2="280.946" y2="394.8848">
	<stop  offset="6.703939e-02" style="stop-color:#BF3132"/>
	<stop  offset="0.1829" style="stop-color:#D36148"/>
	<stop  offset="0.3016" style="stop-color:#E68C60"/>
	<stop  offset="0.3932" style="stop-color:#F3A771"/>
	<stop  offset="0.4458" style="stop-color:#F8B178"/>
</linearGradient>
<path style="display:none;fill:url(#SVGID_00000106144544602306992210000008728628198657217188_);" d="M278.3,376.1
	c-3.5,1.5-8,9.5-7.2,13.4c1,5,7.4,6.4,11.4,4.7c3.2-1.4,8.4-4.8,8.3-8.8C290.7,380.9,282.8,374.2,278.3,376.1z"/>
<linearGradient id="SVGID_00000047780765352416127720000002881477801427845510_" gradientUnits="userSpaceOnUse" x1="455.389" y1="250.8695" x2="455.389" y2="432.3291">
	<stop  offset="6.703939e-02" style="stop-color:#BF3132"/>
	<stop  offset="0.1829" style="stop-color:#D36148"/>
	<stop  offset="0.3016" style="stop-color:#E68C60"/>
	<stop  offset="0.3932" style="stop-color:#F3A771"/>
	<stop  offset="0.4458" style="stop-color:#F8B178"/>
</linearGradient>
<path style="display:none;fill:url(#SVGID_00000047780765352416127720000002881477801427845510_);" d="M436.7,356.1
	c0.6-6,5.8-12.1,8.9-17.1c8-13.5,17.2-26.2,24.9-39.9c4.1-7.4,10.2-17.3,6.5-26c-6-13.8-18.7-14.2-31.4-12
	c-23.8,4-49.2,14.9-69.5,27.6c-8.8,5.5-24.2,15.1-20.7,27.5c0.9,3.3,4.9,11,9.5,9c2.1-0.9,2.4-6.1,3.6-8.1c3-4.6,7.8-8.1,12.2-11.3
	c17.4-12.5,37.4-20.5,57-28.7c6.5-2.7,13.5-5.2,20.4-6.6c2.2-0.4,5.8-1.5,7.7,0.1c2.1,1.7,0.3,5.1-0.5,7.1
	c-2.6,6-6.7,11.4-10.5,16.7c-8.1,11.3-16.7,22.5-24,34.3c-3.4,5.5-7.3,11.2-8.9,17.6c-2.7,10.6,4.4,23.1,16.7,20
	c8.9-2.2,16.6-10.6,23.2-16.4c7.4-6.5,14-13.7,20.9-20.7c10-10.1,18.7-21.5,28.7-31.5c-9.3,17.6-20,34.6-29.9,51.9
	c-6.2,10.8-12.1,21.8-17.8,32.9c-3.9,7.6-7.7,15.2-10.9,23.2c-1.3,3.4-3.4,7.4-2.7,11.1c1,5.8,4.3,10.9,9.4,13.9
	c1.8,1.1,4.9,2.7,6.8,0.8c2.3-2.4,1.6-9.5,2.5-12.8c3-10.9,6.9-21.6,11.4-32c14.8-34.2,32.8-68,54.1-98.7c4.8-6.9,9.6-13.9,15-20.4
	c1.9-2.3,6.5-5.8,6.9-8.8c0.5-3.4-4.6-6.5-7.2-7.4c-5-1.7-7.8,1.3-11.1,4.6c-6.2,6.2-11.9,12.8-18.1,19
	c-19.8,19.9-38.5,40.9-58.4,60.7c-5.4,5.4-10.8,10.9-16.7,15.7C442.1,353.3,439.9,355.7,436.7,356.1z"/>
<linearGradient id="SVGID_00000026864515404250213840000012039824613220320183_" gradientUnits="userSpaceOnUse" x1="601.9753" y1="389.0277" x2="601.9753" y2="389.4314">
	<stop  offset="6.703939e-02" style="stop-color:#BF3132"/>
	<stop  offset="0.1829" style="stop-color:#D36148"/>
	<stop  offset="0.3016" style="stop-color:#E68C60"/>
	<stop  offset="0.3932" style="stop-color:#F3A771"/>
	<stop  offset="0.4458" style="stop-color:#F8B178"/>
</linearGradient>
<path style="display:none;fill:url(#SVGID_00000026864515404250213840000012039824613220320183_);" d="M601.8,389l0.4,0.4L601.8,389
	z"/>
<linearGradient id="SVGID_00000165233434850474375580000000181697889321757059_" gradientUnits="userSpaceOnUse" x1="647.3577" y1="315.319" x2="647.3577" y2="433.7227">
	<stop  offset="6.703939e-02" style="stop-color:#BF3132"/>
	<stop  offset="0.1829" style="stop-color:#D36148"/>
	<stop  offset="0.3016" style="stop-color:#E68C60"/>
	<stop  offset="0.3932" style="stop-color:#F3A771"/>
	<stop  offset="0.4458" style="stop-color:#F8B178"/>
</linearGradient>
<path style="display:none;fill:url(#SVGID_00000165233434850474375580000000181697889321757059_);" d="M794.3,354.6
	c-5.8,4.3-25.8,25.4-31.7,23.2c-2.2-2.1-0.3-6.7,0.1-9.1c1.4-6.6,3.8-13.2,6.7-19.4c1-2.2,4.2-5.5,3.7-8.1
	c-7.7-20.7-43,24-51.1,30.3c3.3-6.5,6.7-12.8,11.2-18.6c1.6-2.1,5.8-5.4,6-8.1c0.4-5.7-8.8-7.7-12.3-5c-5.1,3.9-6.8,10.2-10.9,14.7
	c-6.9,7.9-51.8,45-54.4,21.8c16.1,0.4,50.4-34.4,33.1-48.1c-12.4-8.7-25.7,8.5-32.4,17c-3.6,6-5.7,8.8-13.2,9.1
	c-5.2,1.4-10.1,4.4-15.3,5.7c-2.5,0.6-2.6-3.9-3.5-5.4c-6.9-10.6-18,0.9-24.8,5.7c-21.3,14.4,16.9-37.9,23.8-35.5
	c3.8-0.1,4.9,7,8.1,5.5c4.7-2.2,1.3-9-1.3-11.3c-8.9-8.1-20.5-0.4-27.8,5.9c-9.7,8.1-16.6,18.9-22.7,29.8c-4,4.9-9.6,8.9-14.4,12.9
	c-5,3.6-9.7,9.1-15.7,10.8c-5.7-3.4,7.1-28.2,9.4-33.8c1.2-2.5,4.5-6.1,4.6-8.9c0.1-2.9-3.1-5.7-5.5-6.7
	c-5.9-2.6-11.9,7.8-15.1,11.6c-9.4,11-18.3,22.4-28.1,33.1c-2.4,2.7-6.7,9.8-10.5,10.4c-9.1-0.9,21.5-41.5,23.1-45.5
	c0.5-3.2-4.7-6.5-7.4-6.9c-5.5-0.8-9,6.3-11.6,10.1c-7.7,12.5-17.6,25.3-20.2,40c-0.3,6.8,4.8,14.3,12.5,12.3
	c7.7-3.2,13.2-10.6,19-16.3c5.5-6.1,10.9-12.5,16.5-18.6c-1,4.8-3.7,9.2-4.3,14.1c-1.1,8.2,5.8,17.5,14.8,14.8
	c12.6-3.7,21.2-15.2,31.5-22.5c6.3,19.6,26.4-1,35.1-7.3c4.6,15.2-46,30.3-57.4,55.7c-7.9,15,13.1,26.3,24.3,15.9
	c18.1-12.9,30.4-33.1,40.3-52.6c2.7-10,16.4-13.6,25.1-16.1c-1.7,5.8-5.4,10.7-6,17c-1.1,11,9,17.3,18.9,15.9
	c18.1-2.5,30.4-14.1,44.8-24c-1.7,7.2-5,12.8-0.4,19.8c1.3,1.9,4.9,5.6,7.5,4c8.4-17.2,23.4-34,39.2-45.2c-3.4,7.6-6.4,16-7.8,24.2
	c-2.8,11.8,8.7,19.9,18.7,12.9c9-5,17.1-12,24.6-18.9c2.6-2.4,9.3-6.7,9.6-10.5C801,351.2,796.6,352.5,794.3,354.6z M689.7,330.8
	c-2.9,13-12.2,29-25.4,33.5C668.7,352.2,678.8,337.7,689.7,330.8z M572.7,420.6c-3.9-7,19.7-24.2,24.9-28.7c3-2.4,6.2-5.4,9.7-7
	C603,392.2,581.2,424.2,572.7,420.6z"/>
</svg>
